<svg width="34" height="34" viewBox="0 0 34 34" fill="none" xmlns="http://www.w3.org/2000/svg">
<path d="M21.7433 13.2583L13.258 21.7436C12.9681 22.0335 12.4872 22.0335 12.1973 21.7436C11.9074 21.4537 11.9074 20.9728 12.1973 20.6829L20.6826 12.1976C20.9725 11.9077 21.4533 11.9077 21.7433 12.1976C22.0332 12.4875 22.0332 12.9684 21.7433 13.2583Z" fill="white"/>
<path d="M21.7433 21.7435C21.4533 22.0334 20.9725 22.0334 20.6826 21.7435L12.1973 13.2582C11.9074 12.9683 11.9074 12.4875 12.1973 12.1976C12.4872 11.9076 12.9681 11.9076 13.258 12.1976L21.7433 20.6828C22.0332 20.9728 22.0332 21.4536 21.7433 21.7435Z" fill="white"/>
</svg>
