<svg width="50" height="15" viewBox="0 0 50 15" fill="none" xmlns="http://www.w3.org/2000/svg">
<path d="M-0.00032568 7.36377C-0.00032568 10.3093 2.38749 12.6971 5.33301 12.6971C8.27853 12.6971 10.6663 10.3093 10.6663 7.36377C10.6663 4.41825 8.27853 2.03044 5.33301 2.03044C2.38749 2.03044 -0.00032568 4.41825 -0.00032568 7.36377ZM49.5401 8.07088C49.9306 7.68035 49.9306 7.04719 49.5401 6.65666L43.1762 0.292702C42.7856 -0.0978227 42.1525 -0.0978227 41.7619 0.292702C41.3714 0.683226 41.3714 1.31639 41.7619 1.70692L47.4188 7.36377L41.7619 13.0206C41.3714 13.4111 41.3714 14.0443 41.7619 14.4348C42.1525 14.8254 42.7856 14.8254 43.1762 14.4348L49.5401 8.07088ZM5.33301 7.36377V8.36377H48.833V7.36377V6.36377H5.33301V7.36377Z" fill="#76A136"/>
</svg>
