<svg width="88" height="88" viewBox="0 0 88 88" fill="none" xmlns="http://www.w3.org/2000/svg">
<g opacity="0.53">
<circle cx="43.6519" cy="43.6516" r="33.3804" fill="#FF6B46"/>
<path d="M55.8311 34.0436L34.0432 55.8315C33.2988 56.5759 32.0642 56.5759 31.3197 55.8315C30.5753 55.087 30.5753 53.8524 31.3197 53.108L53.1076 31.3201C53.852 30.5757 55.0867 30.5757 55.8311 31.3201C56.5755 32.0646 56.5755 33.2992 55.8311 34.0436Z" fill="white"/>
<path d="M55.8311 55.8312C55.0867 56.5756 53.852 56.5756 53.1076 55.8312L31.3197 34.0434C30.5753 33.299 30.5753 32.0643 31.3197 31.3199C32.0642 30.5755 33.2988 30.5755 34.0432 31.3199L55.8311 53.1077C56.5755 53.8522 56.5755 55.0868 55.8311 55.8312Z" fill="white"/>
</g>
</svg>
