<svg width="88" height="88" viewBox="0 0 88 88" fill="none" xmlns="http://www.w3.org/2000/svg">
<path d="M77.3288 25.5934C74.2122 22.1467 69.0055 20.4234 61.4522 20.4234H60.5722V20.2767C60.5722 14.1167 60.5722 6.49005 46.7855 6.49005H41.2122C27.4255 6.49005 27.4255 14.1534 27.4255 20.2767V20.4601H26.5455C18.9555 20.4601 13.7855 22.1834 10.6688 25.6301C7.03884 29.6634 7.14883 35.09 7.5155 38.7934L7.55217 39.05L7.89629 42.6633C7.91056 42.8131 7.99038 42.9477 8.11586 43.0308C8.75239 43.4518 10.7762 44.7808 11.8788 45.3934C12.3922 45.7234 12.9422 46.0167 13.4922 46.3101C19.7622 49.7567 26.6555 52.0667 33.6588 53.2034C33.9888 56.6501 35.4922 60.6834 43.5222 60.6834C51.5522 60.6834 53.1288 56.6867 53.3855 53.1301C60.8655 51.9201 68.0888 49.3167 74.6155 45.5034C74.8355 45.3934 74.9822 45.2834 75.1655 45.1734C76.7883 44.2562 78.4789 43.1014 79.9762 42.0029C80.0886 41.9204 80.1609 41.7946 80.1763 41.6561L80.2988 40.5534L80.4822 38.8301C80.5188 38.6101 80.5188 38.4267 80.5555 38.17C80.8488 34.4667 80.7755 29.4067 77.3288 25.5934ZM47.9955 50.71C47.9955 54.5967 47.9955 55.1834 43.4855 55.1834C38.9755 55.1834 38.9755 54.4867 38.9755 50.7467V46.1267H47.9955V50.71ZM32.6688 20.4234V20.2767C32.6688 14.0434 32.6688 11.7334 41.2122 11.7334H46.7855C55.3288 11.7334 55.3288 14.0801 55.3288 20.2767V20.4601H32.6688V20.4234Z" fill="#292D32"/>
<path d="M78.6963 49.3168C79.0481 49.1448 79.4468 49.4277 79.4114 49.8177L77.8791 66.6967C77.1091 74.0301 74.1024 81.5101 57.9691 81.5101H30.0291C13.8958 81.5101 10.8891 74.0301 10.1191 66.7334L8.65839 50.6656C8.62335 50.2801 9.0133 49.9978 9.36432 50.1608C12.3664 51.5555 23.2307 56.5081 28.8523 57.802C29.0178 57.8401 29.1483 57.9572 29.2114 58.1149C31.2892 63.3041 36.2342 66.0734 43.5224 66.0734C50.7385 66.0734 55.7534 63.1976 57.8334 58.0051C57.8966 57.8472 58.027 57.7302 58.1927 57.6922C64.143 56.3245 75.5873 50.8371 78.6963 49.3168Z" fill="#292D32"/>
</svg>
