<svg width="71" height="71" viewBox="0 0 71 71" fill="none" xmlns="http://www.w3.org/2000/svg">
<path d="M62.3908 20.6492C59.8763 17.8684 55.6754 16.478 49.5812 16.478H48.8713V16.3597C48.8713 11.3897 48.8713 5.23633 37.7479 5.23633H33.2512C22.1279 5.23633 22.1279 11.4192 22.1279 16.3597V16.5076H21.4179C15.2942 16.5076 11.1229 17.898 8.60833 20.6788C5.67958 23.933 5.76833 28.3113 6.06416 31.2992L6.09375 31.5063L6.36704 34.3759C6.3813 34.5256 6.46188 34.6608 6.5874 34.7437C7.14 35.1088 8.71627 36.1419 9.58458 36.6242C9.99875 36.8905 10.4425 37.1272 10.8862 37.3638C15.945 40.1447 21.5067 42.0084 27.1571 42.9255C27.4233 45.7063 28.6362 48.9605 35.115 48.9605C41.5938 48.9605 42.8658 45.7359 43.0729 42.8663C49.1079 41.8901 54.9358 39.7897 60.2017 36.713C60.3792 36.6242 60.4975 36.5355 60.6454 36.4467C61.9424 35.7137 63.2932 34.7925 64.4927 33.9137C64.6052 33.8313 64.6775 33.7055 64.6929 33.567L64.7871 32.7192L64.935 31.3288C64.9646 31.1513 64.9646 31.0034 64.9942 30.7963C65.2308 27.8084 65.1717 23.7259 62.3908 20.6492ZM38.7242 40.9138C38.7242 44.0497 38.7242 44.523 35.0854 44.523C31.4467 44.523 31.4467 43.9609 31.4467 40.9434V37.2159H38.7242V40.9138ZM26.3583 16.478V16.3597C26.3583 11.3305 26.3583 9.46675 33.2512 9.46675H37.7479C44.6408 9.46675 44.6408 11.3601 44.6408 16.3597V16.5076H26.3583V16.478Z" fill="#659A43"/>
<path d="M63.3326 39.8688C63.6845 39.6972 64.0914 39.9763 64.056 40.3663L62.8354 53.812C62.2141 59.7287 59.7883 65.7637 46.7716 65.7637H24.2291C11.2124 65.7637 8.7866 59.7287 8.16535 53.8416L7.00214 41.0463C6.9671 40.6608 7.36313 40.3812 7.71433 40.5438C10.3284 41.7548 18.7726 45.5837 23.2284 46.6237C23.3938 46.6624 23.5251 46.7795 23.5891 46.9368C25.2768 51.0922 29.2583 53.3091 35.1158 53.3091C40.9152 53.3091 44.9524 51.0069 46.6424 46.8482C46.7064 46.6908 46.8376 46.5737 47.0032 46.5351C51.7194 45.4353 60.6205 41.191 63.3326 39.8688Z" fill="#659A43"/>
</svg>
