<svg width="71" height="71" viewBox="0 0 71 71" fill="none" xmlns="http://www.w3.org/2000/svg">
<path d="M28.1038 57.6873V53.2498H13.3122C11.6851 53.2498 10.2059 52.599 9.14092 51.5044C8.04634 50.4394 7.39551 48.9603 7.39551 47.3332C7.39551 44.2861 9.76217 41.7419 12.7501 41.4461C12.9276 41.4165 13.1051 41.4165 13.3122 41.4165H57.6872C57.8943 41.4165 58.0718 41.4165 58.2493 41.4461C59.6693 41.5644 60.9118 42.1857 61.8584 43.1619C63.0713 44.3453 63.7222 46.0315 63.5743 47.8657C63.308 50.9719 60.4976 53.2498 57.3618 53.2498H42.8955V57.6873C42.8955 61.7698 39.5822 65.0832 35.4997 65.0832C31.4172 65.0832 28.1038 61.7698 28.1038 57.6873Z" fill="#BB29FF"/>
<path d="M50.8542 5.9165H39.1984C38.3701 5.9165 37.7192 6.56734 37.7192 7.39567V11.8332C37.7192 13.0461 36.7134 14.0519 35.5005 14.0519C35.2342 14.0519 34.9976 13.9928 34.7609 13.904C33.903 13.6082 33.2817 12.7798 33.2817 11.8332V7.39567C33.2817 6.56734 32.6309 5.9165 31.8026 5.9165H27.3355C26.5071 5.9165 25.8563 6.56734 25.8563 7.39567V20.7082C25.8563 21.9211 24.8505 22.9269 23.6376 22.9269C22.4246 22.9269 21.4188 21.9211 21.4188 20.7082V14.0519V7.39567C21.4188 6.59692 20.8271 5.97567 20.0284 5.9165H19.9396C14.7921 6.03484 10.7984 10.5019 11.3309 15.679L12.4255 35.6478C12.5142 37.2157 13.8159 38.4582 15.3838 38.4582H55.6171C57.1851 38.4582 58.4867 37.2157 58.5755 35.6478L59.6701 15.679C60.2026 10.4428 56.0905 5.9165 50.8542 5.9165Z" fill="#BB29FF"/>
</svg>
