<svg width="62" height="62" viewBox="0 0 62 62" fill="none" xmlns="http://www.w3.org/2000/svg">
<path d="M28.5462 38.6208L23.767 43.4C22.7595 44.4075 21.1578 44.4075 20.1245 43.4258C19.8403 43.1417 19.5562 42.8833 19.272 42.5992C16.6112 39.9125 14.2087 37.0967 12.0645 34.1517C9.94616 31.2067 8.24116 28.2617 7.00116 25.3425C5.78699 22.3975 5.16699 19.5817 5.16699 16.895C5.16699 15.1383 5.47699 13.4592 6.09699 11.9092C6.71699 10.3333 7.69866 8.88666 9.06783 7.59499C10.7212 5.96749 12.5295 5.16666 14.4412 5.16666C15.1645 5.16666 15.8878 5.32166 16.5337 5.63166C17.2053 5.94166 17.7995 6.40666 18.2645 7.07832L24.2578 15.5258C24.7228 16.1717 25.0587 16.7658 25.2912 17.3342C25.5237 17.8767 25.6528 18.4192 25.6528 18.91C25.6528 19.53 25.472 20.15 25.1103 20.7442C24.7745 21.3383 24.2837 21.9583 23.6637 22.5783L21.7003 24.6192C21.4162 24.9033 21.287 25.2392 21.287 25.6525C21.287 25.8592 21.3128 26.04 21.3645 26.2467C21.442 26.4533 21.5195 26.6083 21.5712 26.7633C22.0362 27.6158 22.837 28.7267 23.9737 30.07C25.1362 31.4133 26.3762 32.7825 27.7195 34.1517C27.9778 34.41 28.262 34.6683 28.5203 34.9267C29.5537 35.9342 29.5795 37.5875 28.5462 38.6208Z" fill="#292D32"/>
<path d="M56.7556 47.3525C56.7556 48.0758 56.6265 48.825 56.3681 49.5483C56.2906 49.755 56.2131 49.9617 56.1098 50.1683C55.6706 51.0983 55.1023 51.9767 54.3531 52.8033C53.0873 54.1983 51.6923 55.2058 50.1165 55.8517C50.0906 55.8517 50.0648 55.8775 50.039 55.8775C48.5148 56.4975 46.8615 56.8333 45.079 56.8333C42.444 56.8333 39.6281 56.2133 36.6573 54.9475C33.6865 53.6817 30.7156 51.9767 27.7706 49.8325C26.7631 49.0833 25.7556 48.3342 24.7998 47.5333L33.2473 39.0858C33.9706 39.6283 34.6165 40.0417 35.159 40.3258C35.2881 40.3775 35.4431 40.455 35.624 40.5325C35.8306 40.61 36.0373 40.6358 36.2698 40.6358C36.709 40.6358 37.0448 40.4808 37.329 40.1967L39.2923 38.2592C39.9381 37.6133 40.5581 37.1225 41.1523 36.8125C41.7465 36.4508 42.3406 36.27 42.9865 36.27C43.4773 36.27 43.994 36.3733 44.5623 36.6058C45.1306 36.8383 45.7248 37.1742 46.3706 37.6133L54.9215 43.6842C55.5931 44.1492 56.0581 44.6917 56.3423 45.3375C56.6006 45.9833 56.7556 46.6292 56.7556 47.3525Z" fill="#292D32"/>
</svg>
