<svg width="103" height="103" viewBox="0 0 103 103" fill="none" xmlns="http://www.w3.org/2000/svg">
<path d="M94.1133 93.6869H9.11328C7.37078 93.6869 5.92578 92.2419 5.92578 90.4994C5.92578 88.7569 7.37078 87.3119 9.11328 87.3119H94.1133C95.8558 87.3119 97.3008 88.7569 97.3008 90.4994C97.3008 92.2419 95.8558 93.6869 94.1133 93.6869Z" fill="white"/>
<path d="M42.0508 17.1869V93.6869H61.1758V17.1869C61.1758 12.5119 59.2633 8.68689 53.5258 8.68689H49.7008C43.9633 8.68689 42.0508 12.5119 42.0508 17.1869Z" fill="white"/>
<path d="M13.3633 42.6869V93.6869H30.3633V42.6869C30.3633 38.0119 28.6633 34.1869 23.5633 34.1869H20.1633C15.0633 34.1869 13.3633 38.0119 13.3633 42.6869Z" fill="white"/>
<path d="M72.8633 63.9369V93.6869H89.8633V63.9369C89.8633 59.2619 88.1633 55.4369 83.0633 55.4369H79.6633C74.5633 55.4369 72.8633 59.2619 72.8633 63.9369Z" fill="white"/>
</svg>
