<svg width="89" height="89" viewBox="0 0 89 89" fill="none" xmlns="http://www.w3.org/2000/svg">
<path d="M77.9434 84.3449H11.9434C10.44 84.3449 9.19336 83.0983 9.19336 81.5949C9.19336 80.0916 10.44 78.8449 11.9434 78.8449H77.9434C79.4467 78.8449 80.6934 80.0916 80.6934 81.5949C80.6934 83.0983 79.4467 84.3449 77.9434 84.3449Z" fill="#292D32"/>
<path d="M21.4767 31.6549H15.61C13.5934 31.6549 11.9434 33.3049 11.9434 35.3216V66.9283C11.9434 68.9449 13.5934 70.5949 15.61 70.5949H21.4767C23.4934 70.5949 25.1434 68.9449 25.1434 66.9283V35.3216C25.1434 33.2683 23.4934 31.6549 21.4767 31.6549Z" fill="#292D32"/>
<path d="M47.8771 19.9583H42.0104C39.9938 19.9583 38.3438 21.6083 38.3438 23.6249V66.9283C38.3438 68.945 39.9938 70.5949 42.0104 70.5949H47.8771C49.8938 70.5949 51.5438 68.945 51.5438 66.9283V23.6249C51.5438 21.6083 49.8938 19.9583 47.8771 19.9583Z" fill="#292D32"/>
<path d="M74.2765 8.26163H68.4098C66.3932 8.26163 64.7432 9.91163 64.7432 11.9283V66.9283C64.7432 68.945 66.3932 70.595 68.4098 70.595H74.2765C76.2932 70.595 77.9432 68.945 77.9432 66.9283V11.9283C77.9432 9.91163 76.2932 8.26163 74.2765 8.26163Z" fill="#292D32"/>
</svg>
