<svg width="44" height="44" viewBox="0 0 44 44" fill="none" xmlns="http://www.w3.org/2000/svg">
<path d="M40.3332 40.3335H3.6665C2.91484 40.3335 2.2915 39.7102 2.2915 38.9585C2.2915 38.2068 2.91484 37.5835 3.6665 37.5835H40.3332C41.0848 37.5835 41.7082 38.2068 41.7082 38.9585C41.7082 39.7102 41.0848 40.3335 40.3332 40.3335Z" fill="#76A136"/>
<path d="M17.875 7.33317V40.3332H26.125V7.33317C26.125 5.3165 25.3 3.6665 22.825 3.6665H21.175C18.7 3.6665 17.875 5.3165 17.875 7.33317Z" fill="#76A136"/>
<path d="M5.5 18.3332V40.3332H12.8333V18.3332C12.8333 16.3165 12.1 14.6665 9.9 14.6665H8.43333C6.23333 14.6665 5.5 16.3165 5.5 18.3332Z" fill="#76A136"/>
<path d="M31.1665 27.5002V40.3335H38.4998V27.5002C38.4998 25.4835 37.7665 23.8335 35.5665 23.8335H34.0998C31.8998 23.8335 31.1665 25.4835 31.1665 27.5002Z" fill="#76A136"/>
</svg>
