<svg width="62" height="63" viewBox="0 0 62 63" fill="none" xmlns="http://www.w3.org/2000/svg">
<path d="M31.0003 5.66666C16.7662 5.66666 5.16699 17.2658 5.16699 31.5C5.16699 45.7342 16.7662 57.3333 31.0003 57.3333C45.2345 57.3333 56.8337 45.7342 56.8337 31.5C56.8337 17.2658 45.2345 5.66666 31.0003 5.66666ZM42.2378 40.7225C41.8762 41.3425 41.2303 41.6783 40.5587 41.6783C40.2228 41.6783 39.887 41.6008 39.577 41.3942L31.5687 36.615C29.5795 35.4267 28.107 32.8175 28.107 30.5183V19.9267C28.107 18.8675 28.9853 17.9892 30.0445 17.9892C31.1037 17.9892 31.982 18.8675 31.982 19.9267V30.5183C31.982 31.4483 32.757 32.8175 33.5578 33.2825L41.5662 38.0617C42.4962 38.6042 42.8062 39.7925 42.2378 40.7225Z" fill="#292D32"/>
</svg>
