<svg width="89" height="89" viewBox="0 0 89 89" fill="none" xmlns="http://www.w3.org/2000/svg">
<path d="M42.1934 67.8449H33.9434C29.91 67.8449 26.61 71.1449 26.61 75.1783V76.0949H22.9434C21.44 76.0949 20.1934 77.3416 20.1934 78.8449C20.1934 80.3483 21.44 81.5949 22.9434 81.5949H66.9434C68.4467 81.5949 69.6934 80.3483 69.6934 78.8449C69.6934 77.3416 68.4467 76.0949 66.9434 76.0949H63.2767V75.1783C63.2767 71.1449 59.9767 67.8449 55.9434 67.8449H47.6934V59.4483C46.7767 59.5583 45.86 59.5949 44.9434 59.5949C44.0267 59.5949 43.11 59.5583 42.1934 59.4483V67.8449Z" fill="white"/>
<path d="M68.7037 43.6083C71.1237 42.6916 73.2504 41.1883 74.937 39.5016C78.347 35.725 80.5837 31.215 80.5837 25.935C80.5837 20.655 76.4404 16.5116 71.1604 16.5116H69.107C66.7237 11.635 61.737 8.26163 55.9437 8.26163H33.9437C28.1504 8.26163 23.1637 11.635 20.7804 16.5116H18.727C13.447 16.5116 9.30371 20.655 9.30371 25.935C9.30371 31.215 11.5404 35.725 14.9504 39.5016C16.637 41.1883 18.7637 42.6916 21.1837 43.6083C24.997 52.995 34.1637 59.595 44.9437 59.595C55.7237 59.595 64.8904 52.995 68.7037 43.6083ZM55.357 31.9116L53.0837 34.6983C52.717 35.1016 52.4604 35.9083 52.497 36.4583L52.717 40.0516C52.8637 42.2516 51.287 43.3883 49.2337 42.5816L45.897 41.2616C45.3837 41.0783 44.5037 41.0783 43.9904 41.2616L40.6537 42.5816C38.6004 43.3883 37.0237 42.2516 37.1704 40.0516L37.3904 36.4583C37.427 35.9083 37.1704 35.1016 36.8037 34.6983L34.5304 31.9116C33.1004 30.225 33.7237 28.355 35.8504 27.805L39.3337 26.925C39.8837 26.7783 40.5437 26.265 40.837 25.7883L42.7804 22.7816C43.9904 20.9116 45.897 20.9116 47.107 22.7816L49.0504 25.7883C49.3437 26.265 50.0037 26.7783 50.5537 26.925L54.037 27.805C56.1637 28.355 56.787 30.225 55.357 31.9116Z" fill="white"/>
</svg>
