<svg width="40" height="40" viewBox="0 0 40 40" fill="none" xmlns="http://www.w3.org/2000/svg">
<path d="M35.4163 15.2501C31.5663 9.20013 25.933 5.7168 19.9997 5.7168C17.033 5.7168 14.1497 6.58346 11.5163 8.20013C8.88301 9.83346 6.51634 12.2168 4.58301 15.2501C2.91634 17.8668 2.91634 22.1168 4.58301 24.7335C8.43301 30.8001 14.0663 34.2668 19.9997 34.2668C22.9663 34.2668 25.8497 33.4001 28.483 31.7835C31.1163 30.1501 33.483 27.7668 35.4163 24.7335C37.083 22.1335 37.083 17.8668 35.4163 15.2501ZM19.9997 26.7335C16.2663 26.7335 13.2663 23.7168 13.2663 20.0001C13.2663 16.2835 16.2663 13.2668 19.9997 13.2668C23.733 13.2668 26.733 16.2835 26.733 20.0001C26.733 23.7168 23.733 26.7335 19.9997 26.7335Z" fill="#2583FF"/>
<path d="M20 15.2334C17.3833 15.2334 15.25 17.3667 15.25 20.0001C15.25 22.6167 17.3833 24.7501 20 24.7501C22.6167 24.7501 24.7667 22.6167 24.7667 20.0001C24.7667 17.3834 22.6167 15.2334 20 15.2334Z" fill="#2583FF"/>
</svg>
