<svg width="71" height="71" viewBox="0 0 71 71" fill="none" xmlns="http://www.w3.org/2000/svg">
<path d="M35.5003 5.9165C27.7495 5.9165 21.4482 12.2178 21.4482 19.9686C21.4482 27.5715 27.3945 33.7248 35.1453 33.9911C35.382 33.9615 35.6187 33.9615 35.7962 33.9911C35.8553 33.9911 35.8849 33.9911 35.9441 33.9911C35.9737 33.9911 35.9737 33.9911 36.0032 33.9911C43.5766 33.7248 49.5228 27.5715 49.5524 19.9686C49.5524 12.2178 43.2512 5.9165 35.5003 5.9165Z" fill="#FC7A1A"/>
<path d="M50.5279 41.8603C42.2741 36.3578 28.8137 36.3578 20.5008 41.8603C16.7437 44.3749 14.6729 47.7769 14.6729 51.4157C14.6729 55.0544 16.7437 58.4269 20.4712 60.9119C24.6129 63.6928 30.0562 65.0832 35.4995 65.0832C40.9429 65.0832 46.3862 63.6928 50.5279 60.9119C54.2554 58.3974 56.3262 55.0249 56.3262 51.3565C56.2966 47.7178 54.2554 44.3453 50.5279 41.8603Z" fill="#FC7A1A"/>
</svg>
