<svg width="44" height="44" viewBox="0 0 44 44" fill="none" xmlns="http://www.w3.org/2000/svg">
<path d="M22 37.125C13.6583 37.125 6.875 30.3417 6.875 22C6.875 13.6583 13.6583 6.875 22 6.875C30.3417 6.875 37.125 13.6583 37.125 22C37.125 30.3417 30.3417 37.125 22 37.125ZM22 9.625C15.18 9.625 9.625 15.18 9.625 22C9.625 28.82 15.18 34.375 22 34.375C28.82 34.375 34.375 28.82 34.375 22C34.375 15.18 28.82 9.625 22 9.625Z" fill="#76A136"/>
<path d="M22 28.875C18.205 28.875 15.125 25.795 15.125 22C15.125 18.205 18.205 15.125 22 15.125C25.795 15.125 28.875 18.205 28.875 22C28.875 25.795 25.795 28.875 22 28.875ZM22 17.875C19.7267 17.875 17.875 19.7267 17.875 22C17.875 24.2733 19.7267 26.125 22 26.125C24.2733 26.125 26.125 24.2733 26.125 22C26.125 19.7267 24.2733 17.875 22 17.875Z" fill="#76A136"/>
<path d="M22 8.70817C21.2483 8.70817 20.625 8.08484 20.625 7.33317V3.6665C20.625 2.91484 21.2483 2.2915 22 2.2915C22.7517 2.2915 23.375 2.91484 23.375 3.6665V7.33317C23.375 8.08484 22.7517 8.70817 22 8.70817Z" fill="#76A136"/>
<path d="M7.33317 23.375H3.6665C2.91484 23.375 2.2915 22.7517 2.2915 22C2.2915 21.2483 2.91484 20.625 3.6665 20.625H7.33317C8.08484 20.625 8.70817 21.2483 8.70817 22C8.70817 22.7517 8.08484 23.375 7.33317 23.375Z" fill="#76A136"/>
<path d="M22 41.7082C21.2483 41.7082 20.625 41.0848 20.625 40.3332V36.6665C20.625 35.9148 21.2483 35.2915 22 35.2915C22.7517 35.2915 23.375 35.9148 23.375 36.6665V40.3332C23.375 41.0848 22.7517 41.7082 22 41.7082Z" fill="#76A136"/>
<path d="M40.3332 23.375H36.6665C35.9148 23.375 35.2915 22.7517 35.2915 22C35.2915 21.2483 35.9148 20.625 36.6665 20.625H40.3332C41.0848 20.625 41.7082 21.2483 41.7082 22C41.7082 22.7517 41.0848 23.375 40.3332 23.375Z" fill="#76A136"/>
</svg>
