<svg width="19" height="18" viewBox="0 0 19 18" fill="none" xmlns="http://www.w3.org/2000/svg">
<path d="M9.57031 0C13.1654 0 14.9631 -0.000195332 16.2578 0.856445C16.836 1.239 17.3313 1.73434 17.7139 2.3125C18.5705 3.60723 18.5703 5.40493 18.5703 9C18.5703 12.5951 18.5705 14.3928 17.7139 15.6875C17.3313 16.2657 16.836 16.761 16.2578 17.1436C14.9631 18.0002 13.1654 18 9.57031 18C5.97524 18 4.17754 18.0002 2.88281 17.1436C2.30465 16.761 1.80931 16.2657 1.42676 15.6875C0.570117 14.3928 0.570313 12.5951 0.570313 9C0.570313 5.40493 0.570117 3.60723 1.42676 2.3125C1.80931 1.73434 2.30465 1.239 2.88281 0.856445C4.17754 -0.000195531 5.97524 0 9.57031 0ZM9.57031 4.34082C6.99707 4.34082 4.91125 6.42678 4.91113 9C4.91113 11.5733 6.99699 13.6592 9.57031 13.6592C12.1435 13.659 14.2295 11.5732 14.2295 9C14.2294 6.42687 12.1434 4.34096 9.57031 4.34082ZM9.57031 5.91699C11.2728 5.91713 12.6532 7.29749 12.6533 9C12.6533 10.7026 11.2729 12.0829 9.57031 12.083C7.86762 12.083 6.4873 10.7027 6.4873 9C6.48742 7.29741 7.86769 5.91699 9.57031 5.91699ZM14.4141 3.01172C13.8095 3.01172 13.3195 3.50192 13.3193 4.10645C13.3193 4.7111 13.8094 5.20117 14.4141 5.20117C15.0185 5.20096 15.5088 4.71097 15.5088 4.10645C15.5086 3.50205 15.0184 3.01193 14.4141 3.01172Z" fill="white"/>
</svg>
