<svg width="1920" height="2424" viewBox="0 0 1920 2424" fill="none" xmlns="http://www.w3.org/2000/svg">
<path d="M-35.5307 1190.39C-35.8431 1190.31 -36.1554 1190.22 -36.4677 1190.14C-24.4658 1153.49 -5.9862 1118.48 26.1785 1090.58C204.4 975.843 386.679 1063.63 546.193 1092.34C709.147 1132.84 868.188 1175.86 1031.1 1207.61C1328.31 1266.71 1637.22 1289.64 1958.56 1241.88C1995.44 1236.5 2032.56 1230.26 2070.51 1222.89C2070.56 1223.2 2070.61 1223.52 2070.67 1223.83C2033.88 1238.03 1997.44 1250.88 1960.8 1262.57C1641.5 1365.59 1302.64 1371.52 995.705 1309.68C827.147 1276.82 667.177 1225.78 510.985 1172.07C356.824 1128.32 194.715 1030.09 37.3976 1105.56C6.41867 1125.32 -17.3345 1155.44 -35.5307 1190.39Z" fill="#760A21"/>
<path d="M-80.135 1240.93C-80.4393 1240.84 -80.7435 1240.74 -81.0478 1240.65C-64.791 1194.69 -43.9863 1153.6 -6.9593 1117.43C82.7371 1031.44 210.596 1040.29 310.189 1054.48C413.24 1070.43 511.269 1098.47 608.243 1125.58C801.694 1180.79 993.247 1235.92 1190.28 1265.56C1550.36 1323.76 1935.47 1284.26 2301.94 1116.88C2343.39 1098.42 2385.4 1078.2 2428.13 1055.96C2428.28 1056.24 2428.43 1056.52 2428.57 1056.8C2389.01 1085.13 2349.54 1111.42 2310.04 1135.83C1961.89 1355.89 1537.89 1433.23 1161.41 1370.54C955.241 1339.49 760.59 1275.3 573.246 1206.51C388.7 1151 191.372 1020.24 5.03299 1132.04C-31.7002 1160.25 -57.8781 1196.95 -80.135 1240.93Z" fill="#CB9746"/>
</svg>
