<svg width="20" height="20" viewBox="0 0 20 20" fill="none" xmlns="http://www.w3.org/2000/svg">
<g clip-path="url(#clip0_1_1564)">
<path d="M5.49546 16.9319H2.11684V6.05179H5.49546V16.9319ZM3.80433 4.56764C2.72396 4.56764 1.84766 3.67279 1.84766 2.59242C1.84766 2.07347 2.05381 1.57579 2.42075 1.20884C2.7877 0.841891 3.28539 0.635742 3.80433 0.635742C4.32327 0.635742 4.82096 0.841891 5.18791 1.20884C5.55485 1.57579 5.761 2.07347 5.761 2.59242C5.761 3.67279 4.88434 4.56764 3.80433 4.56764ZM18.1405 16.9319H14.7692V11.6355C14.7692 10.3733 14.7437 8.75454 13.0126 8.75454C11.256 8.75454 10.9868 10.1259 10.9868 11.5446V16.9319H7.61182V6.05179H10.8522V7.53593H10.8995C11.3506 6.6811 12.4524 5.77897 14.0962 5.77897C17.5156 5.77897 18.1442 8.03065 18.1442 10.9553V16.9319H18.1405Z" fill="white"/>
</g>
<defs>
<clipPath id="clip0_1_1564">
<rect width="18.6246" height="18.6246" fill="white" transform="translate(0.683594 0.634277)"/>
</clipPath>
</defs>
</svg>
