<svg width="62" height="62" viewBox="0 0 62 62" fill="none" xmlns="http://www.w3.org/2000/svg">
<g clip-path="url(#clip0_1_3434)">
<path d="M53.2678 21.8292C50.5553 9.89418 40.1445 4.52084 30.9995 4.52084C30.9995 4.52084 30.9995 4.52084 30.9737 4.52084C21.8545 4.52084 11.4178 9.86834 8.70535 21.8033C5.68285 35.1333 13.8462 46.4225 21.2345 53.5267C23.9728 56.1617 27.4862 57.4792 30.9995 57.4792C34.5128 57.4792 38.0262 56.1617 40.7387 53.5267C48.127 46.4225 56.2903 35.1592 53.2678 21.8292ZM30.9995 34.7717C26.5045 34.7717 22.862 31.1292 22.862 26.6342C22.862 22.1392 26.5045 18.4967 30.9995 18.4967C35.4945 18.4967 39.137 22.1392 39.137 26.6342C39.137 31.1292 35.4945 34.7717 30.9995 34.7717Z" fill="#292D32"/>
</g>
<defs>
<clipPath id="clip0_1_3434">
<rect width="62" height="62" fill="white"/>
</clipPath>
</defs>
</svg>
