<svg width="242" height="55" viewBox="0 0 242 55" fill="none" xmlns="http://www.w3.org/2000/svg">
<path d="M76.0206 14.2767C75.9643 13.6578 75.714 13.1768 75.2695 12.8337C74.8307 12.4849 74.2035 12.3105 73.3877 12.3105C72.8477 12.3105 72.3976 12.3808 72.0376 12.5214C71.6775 12.6621 71.4075 12.8562 71.2275 13.1037C71.0474 13.3456 70.9546 13.6241 70.949 13.9391C70.9377 14.1979 70.9884 14.4257 71.1009 14.6226C71.219 14.8195 71.3878 14.9939 71.6072 15.1458C71.8322 15.2921 72.1023 15.4215 72.4173 15.534C72.7323 15.6465 73.0868 15.745 73.4806 15.8294L74.9657 16.1669C75.8209 16.3525 76.5747 16.6001 77.2273 16.9095C77.8855 17.2189 78.4368 17.5874 78.8812 18.0149C79.3313 18.4425 79.6717 18.9347 79.9023 19.4917C80.133 20.0486 80.2511 20.6731 80.2567 21.3651C80.2511 22.4564 79.9754 23.3931 79.4297 24.1751C78.8841 24.9571 78.0993 25.5562 77.0754 25.9725C76.0571 26.3888 74.8279 26.597 73.3877 26.597C71.9419 26.597 70.6818 26.3804 69.6073 25.9472C68.5327 25.514 67.6973 24.8558 67.101 23.9726C66.5047 23.0893 66.1981 21.9726 66.1812 20.6225H70.1811C70.2148 21.1794 70.3639 21.6435 70.6283 22.0148C70.8927 22.3861 71.2556 22.6674 71.7169 22.8587C72.1838 23.05 72.7239 23.1456 73.3371 23.1456C73.8997 23.1456 74.3779 23.0696 74.7717 22.9178C75.1711 22.7659 75.4777 22.5549 75.6915 22.2849C75.9052 22.0148 76.0149 21.7054 76.0206 21.3566C76.0149 21.0303 75.9137 20.7519 75.7168 20.5212C75.5199 20.2849 75.2161 20.0824 74.8054 19.9136C74.4004 19.7392 73.8828 19.5789 73.2527 19.4326L71.4469 19.0107C69.9504 18.6675 68.7718 18.1134 67.9111 17.3483C67.0504 16.5776 66.6228 15.5368 66.6284 14.226C66.6228 13.1571 66.9097 12.2205 67.4892 11.416C68.0686 10.6115 68.8703 9.98424 69.8942 9.53418C70.918 9.08412 72.0854 8.8591 73.3962 8.8591C74.7351 8.8591 75.8968 9.08694 76.8813 9.54262C77.8714 9.99268 78.6393 10.6256 79.185 11.4413C79.7307 12.257 80.0092 13.2021 80.0204 14.2767H76.0206ZM89.6826 13.4159V16.4538H81.5056V13.4159H89.6826ZM83.2187 10.3105H87.3451V22.3017C87.3451 22.5549 87.3845 22.7602 87.4633 22.9178C87.5477 23.0696 87.6686 23.1793 87.8261 23.2469C87.9836 23.3087 88.1721 23.3397 88.3915 23.3397C88.549 23.3397 88.715 23.3256 88.8894 23.2975C89.0694 23.2637 89.2044 23.2356 89.2944 23.2131L89.9189 26.1919C89.722 26.2482 89.4435 26.3185 89.0835 26.4029C88.7291 26.4873 88.3043 26.5407 87.8092 26.5632C86.8416 26.6082 86.0118 26.4957 85.3199 26.2257C84.6335 25.95 84.1075 25.5225 83.7419 24.943C83.3818 24.3636 83.2074 23.635 83.2187 22.7574V10.3105ZM100.151 20.7828V13.4159H104.269V26.3776H100.336V23.9641H100.201C99.9144 24.7574 99.4249 25.3874 98.733 25.8544C98.0466 26.3157 97.2168 26.5463 96.2436 26.5463C95.3604 26.5463 94.584 26.3438 93.9146 25.9388C93.2451 25.5337 92.7247 24.9683 92.3534 24.2426C91.9821 23.5113 91.7937 22.6562 91.788 21.6773V13.4159H95.9145V20.8672C95.9201 21.5704 96.1058 22.1245 96.4714 22.5296C96.8371 22.9346 97.335 23.1372 97.9651 23.1372C98.3757 23.1372 98.7442 23.0471 99.0705 22.8671C99.4024 22.6815 99.664 22.4142 99.8553 22.0655C100.052 21.711 100.151 21.2835 100.151 20.7828ZM111.629 26.5632C110.673 26.5632 109.804 26.3157 109.022 25.8206C108.24 25.3256 107.615 24.583 107.148 23.5928C106.681 22.6027 106.448 21.3735 106.448 19.9052C106.448 18.3806 106.69 17.1261 107.174 16.1416C107.657 15.1571 108.29 14.4286 109.072 13.956C109.86 13.4834 110.707 13.2472 111.612 13.2472C112.293 13.2472 112.875 13.3653 113.359 13.6016C113.843 13.8322 114.242 14.1304 114.557 14.4961C114.872 14.8617 115.112 15.2415 115.275 15.6353H115.359V9.09538H119.486V26.3776H115.401V24.2764H115.275C115.1 24.6758 114.853 25.0499 114.532 25.3987C114.211 25.7475 113.809 26.0288 113.325 26.2425C112.847 26.4563 112.282 26.5632 111.629 26.5632ZM113.064 23.3481C113.564 23.3481 113.992 23.2075 114.346 22.9262C114.701 22.6393 114.974 22.237 115.165 21.7195C115.356 21.2019 115.452 20.5943 115.452 19.8967C115.452 19.1879 115.356 18.5775 115.165 18.0656C114.979 17.5536 114.706 17.1598 114.346 16.8842C113.992 16.6085 113.564 16.4707 113.064 16.4707C112.552 16.4707 112.119 16.6113 111.764 16.8926C111.41 17.1739 111.14 17.5705 110.954 18.0825C110.774 18.5944 110.684 19.1992 110.684 19.8967C110.684 20.5943 110.777 21.2019 110.963 21.7195C111.148 22.237 111.415 22.6393 111.764 22.9262C112.119 23.2075 112.552 23.3481 113.064 23.3481ZM124.618 31.2382C124.123 31.2382 123.656 31.1988 123.217 31.12C122.779 31.0469 122.402 30.9485 122.087 30.8247L122.998 27.829C123.403 27.964 123.769 28.0428 124.095 28.0653C124.427 28.0878 124.711 28.0343 124.947 27.9049C125.189 27.7812 125.375 27.559 125.504 27.2383L125.665 26.8501L121.057 13.4159H125.378L127.766 22.6646H127.901L130.323 13.4159H134.669L129.783 27.618C129.546 28.3269 129.212 28.9513 128.778 29.4914C128.351 30.0371 127.797 30.4646 127.116 30.7741C126.441 31.0835 125.608 31.2382 124.618 31.2382ZM157.043 15.3568H152.824C152.768 14.9236 152.653 14.5326 152.478 14.1838C152.304 13.835 152.073 13.5369 151.786 13.2893C151.499 13.0418 151.159 12.8534 150.765 12.724C150.377 12.5889 149.947 12.5214 149.474 12.5214C148.636 12.5214 147.913 12.7268 147.305 13.1374C146.703 13.5481 146.239 14.1416 145.913 14.918C145.592 15.6943 145.432 16.6338 145.432 17.7365C145.432 18.8841 145.595 19.8461 145.921 20.6225C146.253 21.3932 146.717 21.9754 147.314 22.3692C147.916 22.7574 148.627 22.9515 149.449 22.9515C149.91 22.9515 150.329 22.8924 150.706 22.7743C151.089 22.6562 151.423 22.4846 151.71 22.2595C152.003 22.0289 152.242 21.7504 152.428 21.4241C152.619 21.0922 152.751 20.7181 152.824 20.3018L157.043 20.3271C156.97 21.0922 156.748 21.8461 156.377 22.5886C156.011 23.3312 155.508 24.0091 154.866 24.6223C154.225 25.2299 153.443 25.7137 152.52 26.0738C151.603 26.4338 150.551 26.6138 149.364 26.6138C147.8 26.6138 146.4 26.2707 145.162 25.5843C143.93 24.8924 142.957 23.8854 142.242 22.5633C141.528 21.2413 141.171 19.6323 141.171 17.7365C141.171 15.835 141.533 14.2232 142.259 12.9012C142.985 11.5791 143.967 10.5749 145.204 9.8886C146.442 9.20226 147.829 8.8591 149.364 8.8591C150.411 8.8591 151.378 9.00536 152.267 9.2979C153.156 9.58481 153.938 10.0067 154.613 10.5637C155.288 11.115 155.837 11.7929 156.259 12.5974C156.681 13.4019 156.942 14.3217 157.043 15.3568ZM159.434 26.3776V13.4159H163.56V26.3776H159.434ZM161.501 11.9054C160.922 11.9054 160.424 11.7141 160.008 11.3316C159.591 10.9434 159.383 10.4765 159.383 9.93079C159.383 9.39072 159.591 8.92942 160.008 8.54687C160.424 8.15869 160.922 7.96461 161.501 7.96461C162.086 7.96461 162.584 8.15869 162.995 8.54687C163.411 8.92942 163.619 9.39072 163.619 9.93079C163.619 10.4765 163.411 10.9434 162.995 11.3316C162.584 11.7141 162.086 11.9054 161.501 11.9054ZM166.187 26.3776V13.4159H170.195V15.7787H170.33C170.566 14.9236 170.952 14.2879 171.486 13.8716C172.021 13.4497 172.642 13.2387 173.351 13.2387C173.542 13.2387 173.739 13.2528 173.942 13.2809C174.144 13.3034 174.333 13.34 174.507 13.3906V16.977C174.31 16.9095 174.051 16.856 173.731 16.8167C173.416 16.7773 173.134 16.7576 172.887 16.7576C172.397 16.7576 171.956 16.8673 171.562 17.0867C171.174 17.3005 170.867 17.6015 170.642 17.9896C170.423 18.3722 170.313 18.8222 170.313 19.3398V26.3776H166.187ZM181.566 26.6223C180.199 26.6223 179.026 26.341 178.047 25.7784C177.074 25.2159 176.326 24.4339 175.802 23.4325C175.279 22.4255 175.018 21.261 175.018 19.9389C175.018 18.6113 175.279 17.4467 175.802 16.4454C176.331 15.4384 177.082 14.6536 178.056 14.091C179.034 13.5284 180.202 13.2472 181.558 13.2472C182.756 13.2472 183.799 13.4637 184.688 13.8969C185.583 14.3301 186.28 14.9433 186.781 15.7365C187.287 16.5241 187.555 17.4496 187.583 18.5128H183.726C183.647 17.849 183.422 17.3286 183.051 16.9517C182.685 16.5748 182.207 16.3863 181.617 16.3863C181.138 16.3863 180.719 16.5213 180.359 16.7913C179.999 17.0558 179.718 17.4496 179.515 17.9727C179.318 18.4903 179.22 19.1316 179.22 19.8967C179.22 20.6618 179.318 21.3088 179.515 21.8376C179.718 22.3608 179.999 22.7574 180.359 23.0275C180.719 23.2919 181.138 23.4241 181.617 23.4241C181.999 23.4241 182.337 23.3425 182.629 23.1793C182.927 23.0162 183.172 22.7771 183.363 22.4621C183.555 22.1414 183.676 21.7532 183.726 21.2975H187.583C187.543 22.3664 187.276 23.3003 186.781 24.0991C186.292 24.898 185.602 25.5196 184.714 25.9641C183.83 26.4029 182.781 26.6223 181.566 26.6223ZM193.821 9.09538V26.3776H189.694V9.09538H193.821ZM202.506 26.6223C201.15 26.6223 199.98 26.3551 198.996 25.8206C198.017 25.2805 197.263 24.5126 196.734 23.5169C196.211 22.5155 195.949 21.3257 195.949 19.9474C195.949 18.6085 196.214 17.4383 196.743 16.4369C197.272 15.4299 198.017 14.648 198.979 14.091C199.941 13.5284 201.075 13.2472 202.38 13.2472C203.302 13.2472 204.146 13.3906 204.911 13.6775C205.676 13.9644 206.337 14.3892 206.894 14.9517C207.451 15.5143 207.884 16.2091 208.194 17.0361C208.503 17.8574 208.658 18.7997 208.658 19.863V20.8925H197.392V18.4959H204.818C204.813 18.0571 204.709 17.6661 204.506 17.323C204.304 16.9798 204.025 16.7126 203.671 16.5213C203.322 16.3244 202.92 16.226 202.464 16.226C202.003 16.226 201.589 16.33 201.224 16.5382C200.858 16.7407 200.568 17.0192 200.354 17.3736C200.141 17.7224 200.028 18.119 200.017 18.5634V21.0022C200.017 21.531 200.121 21.9951 200.329 22.3946C200.537 22.7884 200.833 23.095 201.215 23.3144C201.598 23.5338 202.053 23.6435 202.582 23.6435C202.948 23.6435 203.28 23.5928 203.578 23.4916C203.876 23.3903 204.132 23.2412 204.346 23.0443C204.56 22.8474 204.72 22.6055 204.827 22.3186L208.616 22.4283C208.458 23.2778 208.112 24.0176 207.578 24.6477C207.049 25.2721 206.354 25.7587 205.494 26.1075C204.633 26.4507 203.637 26.6223 202.506 26.6223ZM222.082 17.3736L218.293 17.4749C218.253 17.2048 218.146 16.9657 217.972 16.7576C217.798 16.5438 217.57 16.3779 217.289 16.2597C217.013 16.136 216.692 16.0741 216.327 16.0741C215.848 16.0741 215.44 16.1697 215.103 16.361C214.771 16.5523 214.608 16.811 214.614 17.1373C214.608 17.3905 214.709 17.6099 214.917 17.7955C215.131 17.9812 215.511 18.1303 216.056 18.2428L218.554 18.7153C219.848 18.9629 220.81 19.3736 221.44 19.9474C222.076 20.5212 222.397 21.2807 222.402 22.2258C222.397 23.1147 222.132 23.8882 221.609 24.5464C221.092 25.2046 220.383 25.7165 219.483 26.0822C218.582 26.4423 217.553 26.6223 216.394 26.6223C214.543 26.6223 213.083 26.2425 212.014 25.4831C210.951 24.718 210.344 23.6941 210.192 22.4114L214.268 22.3102C214.358 22.7827 214.591 23.1428 214.968 23.3903C215.345 23.6378 215.826 23.7616 216.411 23.7616C216.94 23.7616 217.37 23.6632 217.702 23.4663C218.034 23.2694 218.203 23.0078 218.208 22.6815C218.203 22.3889 218.073 22.1555 217.82 21.9811C217.567 21.801 217.17 21.6604 216.63 21.5591L214.369 21.1288C213.069 20.8925 212.102 20.4565 211.466 19.8208C210.83 19.1795 210.515 18.3637 210.521 17.3736C210.515 16.5073 210.746 15.7675 211.213 15.1543C211.68 14.5354 212.344 14.0629 213.204 13.7366C214.065 13.4103 215.08 13.2472 216.251 13.2472C218.006 13.2472 219.39 13.6156 220.402 14.3526C221.415 15.0839 221.975 16.0909 222.082 17.3736Z" fill="white"/>
<path d="M77.7753 53.1653L78.3054 50.3113C79.6236 50.3113 80.772 50.2773 81.7506 50.2093C82.7291 50.1278 83.5377 50.0123 84.1765 49.8628C84.8288 49.6997 85.3113 49.489 85.6239 49.2308C85.9501 48.9726 86.1131 48.66 86.1131 48.2931C86.1131 47.8038 86.0316 47.2194 85.8685 46.5399C85.7054 45.8468 85.4948 45.1468 85.2366 44.4401L87.9071 43.6655C88.0838 44.1275 88.2537 44.6372 88.4167 45.1944C88.5798 45.738 88.7089 46.2885 88.8041 46.8457C88.9128 47.3893 88.9672 47.8989 88.9672 48.3746C88.9672 49.2172 88.7837 49.9443 88.4167 50.5559C88.0498 51.1539 87.4382 51.6499 86.582 52.0441C85.7394 52.4246 84.5978 52.7032 83.1572 52.8799C81.7166 53.0702 79.9226 53.1653 77.7753 53.1653ZM77.7549 53.1653C76.2872 53.1653 75.0436 53.0498 74.0243 52.8187C73.0186 52.6013 72.1964 52.2887 71.5576 51.881C70.9325 51.4597 70.4772 50.9704 70.1918 50.4132C69.9064 49.856 69.7637 49.2444 69.7637 48.5785C69.7637 48.1436 69.7977 47.7087 69.8656 47.2738C69.9471 46.8253 70.0423 46.3904 70.151 45.9691C70.2733 45.5478 70.382 45.1672 70.4772 44.8275L73.0254 45.4187C72.9711 45.6633 72.9099 45.9283 72.8419 46.2137C72.774 46.4991 72.7196 46.7777 72.6789 47.0495C72.6381 47.3077 72.6177 47.5456 72.6177 47.763C72.6177 48.2659 72.7944 48.7144 73.1477 49.1085C73.5147 49.489 74.1127 49.788 74.9417 50.0055C75.7707 50.2093 76.8851 50.3113 78.285 50.3113L78.6927 52.5129L77.7549 53.1653ZM81.1186 43.8489C80.7245 43.8489 80.3847 43.713 80.0993 43.4412C79.8275 43.1558 79.6916 42.8229 79.6916 42.4423C79.6916 42.0482 79.8275 41.7084 80.0993 41.423C80.3847 41.1376 80.7245 40.9949 81.1186 40.9949C81.4991 40.9949 81.8253 41.1376 82.0971 41.423C82.3689 41.7084 82.5048 42.0482 82.5048 42.4423C82.5048 42.8229 82.3689 43.1558 82.0971 43.4412C81.8253 43.713 81.4991 43.8489 81.1186 43.8489ZM77.5919 43.8286C77.1977 43.8286 76.858 43.6927 76.5726 43.4208C76.3007 43.1354 76.1648 42.8025 76.1648 42.4219C76.1648 42.0278 76.3007 41.688 76.5726 41.4026C76.858 41.1172 77.1977 40.9745 77.5919 40.9745C77.9724 40.9745 78.2986 41.1172 78.5704 41.4026C78.8422 41.688 78.9781 42.0278 78.9781 42.4219C78.9781 42.8025 78.8422 43.1354 78.5704 43.4208C78.2986 43.6927 77.9724 43.8286 77.5919 43.8286ZM96.4572 52.8391C95.1933 52.8391 94.2148 52.71 93.5217 52.4518C92.8421 52.1936 92.3665 51.7926 92.0946 51.249C91.8228 50.6918 91.6665 49.9919 91.6258 49.1493L91.1977 37.8147H94.0517L94.4798 47.7834C94.507 48.4086 94.5749 48.8775 94.6836 49.19C94.7924 49.5026 94.9962 49.7133 95.2952 49.822C95.6078 49.9307 96.0631 49.9851 96.6611 49.9851C97.1775 49.9851 97.5445 50.121 97.7619 50.3928C97.993 50.651 98.1085 50.9772 98.1085 51.3713C98.1085 51.7926 97.9658 52.146 97.6804 52.4314C97.395 52.7032 96.9873 52.8391 96.4572 52.8391ZM96.4849 52.8391L96.6888 49.9851H102.56C103.076 49.9851 103.443 50.121 103.661 50.3928C103.892 50.651 104.007 50.9772 104.007 51.3713C104.007 51.7926 103.865 52.146 103.579 52.4314C103.294 52.7032 102.886 52.8391 102.356 52.8391H96.4849ZM102.378 52.8391L102.582 49.9851H108.453C108.969 49.9851 109.336 50.121 109.554 50.3928C109.785 50.651 109.9 50.9772 109.9 51.3713C109.9 51.7926 109.757 52.146 109.472 52.4314C109.187 52.7032 108.779 52.8391 108.249 52.8391H102.378ZM108.271 52.8391L108.474 49.9851H114.346C114.862 49.9851 115.229 50.121 115.446 50.3928C115.677 50.651 115.793 50.9772 115.793 51.3713C115.793 51.7926 115.65 52.146 115.365 52.4314C115.079 52.7032 114.672 52.8391 114.142 52.8391H108.271ZM114.163 52.8391L114.367 49.9851H120.238C120.755 49.9851 121.122 50.121 121.339 50.3928C121.57 50.651 121.686 50.9772 121.686 51.3713C121.686 51.7926 121.543 52.146 121.258 52.4314C120.972 52.7032 120.564 52.8391 120.034 52.8391H114.163ZM120.056 52.8391L120.26 49.9851H126.131C126.648 49.9851 127.014 50.121 127.232 50.3928C127.463 50.651 127.578 50.9772 127.578 51.3713C127.578 51.7926 127.436 52.146 127.15 52.4314C126.865 52.7032 126.457 52.8391 125.927 52.8391H120.056ZM125.949 52.8391L126.153 49.9851H132.024C132.54 49.9851 132.907 50.121 133.125 50.3928C133.356 50.651 133.471 50.9772 133.471 51.3713C133.471 51.7926 133.329 52.146 133.043 52.4314C132.758 52.7032 132.35 52.8391 131.82 52.8391H125.949ZM131.842 52.8391L132.046 49.9851H137.917C138.433 49.9851 138.8 50.121 139.018 50.3928C139.249 50.651 139.364 50.9772 139.364 51.3713C139.364 51.7926 139.221 52.146 138.936 52.4314C138.651 52.7032 138.243 52.8391 137.713 52.8391H131.842ZM137.734 52.8391L137.938 49.9851H143.809C144.326 49.9851 144.693 50.121 144.91 50.3928C145.141 50.651 145.257 50.9772 145.257 51.3713C145.257 51.7926 145.114 52.146 144.829 52.4314C144.543 52.7032 144.136 52.8391 143.606 52.8391H137.734ZM143.627 52.8391L143.831 49.9851H149.702C150.219 49.9851 150.586 50.121 150.803 50.3928C151.034 50.651 151.15 50.9772 151.15 51.3713C151.15 51.7926 151.007 52.146 150.722 52.4314C150.436 52.7032 150.028 52.8391 149.498 52.8391H143.627ZM149.52 52.8391L149.724 49.9851H155.595C156.111 49.9851 156.478 50.121 156.696 50.3928C156.927 50.651 157.042 50.9772 157.042 51.3713C157.042 51.7926 156.9 52.146 156.614 52.4314C156.329 52.7032 155.921 52.8391 155.391 52.8391H149.52ZM155.413 52.8391L155.617 50.0055C156.147 50.0191 156.636 50.0123 157.084 49.9851C157.533 49.9579 157.934 49.9171 158.287 49.8628C158.654 49.8084 158.974 49.7473 159.245 49.6793C159.531 49.6113 159.769 49.5502 159.959 49.4958C160.421 49.3463 160.815 49.1697 161.141 48.9658C161.467 48.7483 161.719 48.5037 161.896 48.2319C162.072 47.9601 162.161 47.6679 162.161 47.3553C162.161 47.1107 162.106 46.8661 161.997 46.6214C161.902 46.3632 161.76 46.1525 161.569 45.9895C161.379 45.8264 161.155 45.7448 160.897 45.7448C160.652 45.7448 160.428 45.8196 160.224 45.9691C160.02 46.1186 159.857 46.3224 159.735 46.5806C159.612 46.8253 159.551 47.1107 159.551 47.4369C159.551 47.7223 159.619 47.9941 159.755 48.2523C159.891 48.4969 160.081 48.7348 160.326 48.9658C160.57 49.1968 160.863 49.4143 161.202 49.6181L158.491 50.6578C158.192 50.3724 157.907 50.0666 157.635 49.7405C157.377 49.4143 157.159 49.0473 156.983 48.6396C156.819 48.2183 156.738 47.7494 156.738 47.233C156.738 46.6078 156.86 46.037 157.105 45.5206C157.349 45.0041 157.676 44.5624 158.083 44.1955C158.491 43.815 158.946 43.5228 159.449 43.3189C159.952 43.1151 160.455 43.0131 160.958 43.0131C161.773 43.0131 162.48 43.2034 163.078 43.5839C163.676 43.9645 164.138 44.4605 164.464 45.0721C164.804 45.6837 164.974 46.3496 164.974 47.0699C164.974 47.7358 164.851 48.3338 164.607 48.8639C164.362 49.3803 164.029 49.8424 163.608 50.2501C163.2 50.6442 162.745 50.9908 162.242 51.2898C161.753 51.5888 161.257 51.8402 160.754 52.0441C160.509 52.1528 160.204 52.2547 159.837 52.3499C159.47 52.445 159.055 52.5333 158.593 52.6149C158.131 52.6828 157.635 52.7372 157.105 52.778C156.575 52.8187 156.011 52.8391 155.413 52.8391ZM166.177 52.8391C165.388 52.8391 164.614 52.7983 163.853 52.7168C163.092 52.6353 162.385 52.5129 161.732 52.3499C161.094 52.1868 160.536 51.9897 160.061 51.7587L161.467 49.557C161.875 49.6657 162.351 49.7541 162.894 49.822C163.452 49.8764 164.029 49.9171 164.627 49.9443C165.239 49.9715 165.823 49.9851 166.38 49.9851C166.897 49.9851 167.264 50.121 167.481 50.3928C167.712 50.651 167.828 50.9772 167.828 51.3713C167.828 51.7926 167.685 52.146 167.4 52.4314C167.114 52.7032 166.707 52.8391 166.177 52.8391ZM162.752 41.158C162.358 41.158 162.018 41.0221 161.732 40.7503C161.461 40.4649 161.325 40.1319 161.325 39.7514C161.325 39.3573 161.461 39.0175 161.732 38.7321C162.018 38.4467 162.358 38.304 162.752 38.304C163.132 38.304 163.458 38.4467 163.73 38.7321C164.002 39.0175 164.138 39.3573 164.138 39.7514C164.138 40.1319 164.002 40.4649 163.73 40.7503C163.458 41.0221 163.132 41.158 162.752 41.158ZM159.225 41.1376C158.831 41.1376 158.491 41.0017 158.206 40.7299C157.934 40.4445 157.798 40.1115 157.798 39.731C157.798 39.3369 157.934 38.9971 158.206 38.7117C158.491 38.4263 158.831 38.2836 159.225 38.2836C159.606 38.2836 159.932 38.4263 160.204 38.7117C160.475 38.9971 160.611 39.3369 160.611 39.731C160.611 40.1115 160.475 40.4445 160.204 40.7299C159.932 41.0017 159.606 41.1376 159.225 41.1376ZM166.203 52.8391L166.407 49.9851H172.278C172.794 49.9851 173.161 50.121 173.379 50.3928C173.61 50.651 173.725 50.9772 173.725 51.3713C173.725 51.7926 173.583 52.146 173.297 52.4314C173.012 52.7032 172.604 52.8391 172.074 52.8391H166.203ZM172.096 52.8391L172.3 49.9851H178.171C178.687 49.9851 179.054 50.121 179.272 50.3928C179.503 50.651 179.618 50.9772 179.618 51.3713C179.618 51.7926 179.475 52.146 179.19 52.4314C178.905 52.7032 178.497 52.8391 177.967 52.8391H172.096ZM177.989 52.8391L178.192 49.9851C178.831 49.9851 179.28 49.9239 179.538 49.8016C179.81 49.6657 179.973 49.4211 180.027 49.0677C180.082 48.7008 180.095 48.1707 180.068 47.4776L179.742 37.8147H182.637L182.983 47.4572C183.01 48.1368 183.092 48.66 183.228 49.027C183.364 49.3939 183.588 49.6453 183.9 49.7812C184.227 49.9171 184.662 49.9851 185.205 49.9851C185.722 49.9851 186.089 50.121 186.306 50.3928C186.523 50.651 186.632 50.9772 186.632 51.3713C186.632 51.7926 186.49 52.146 186.204 52.4314C185.919 52.7032 185.518 52.8391 185.001 52.8391C184.403 52.8391 183.846 52.7712 183.33 52.6353C182.813 52.4993 182.385 52.2411 182.045 51.8606C181.706 51.4801 181.481 50.9296 181.373 50.2093L182.27 50.2297C182.039 50.9364 181.74 51.4801 181.373 51.8606C181.006 52.2275 180.544 52.4858 179.986 52.6353C179.443 52.7712 178.777 52.8391 177.989 52.8391ZM184.996 52.8391L185.2 49.9851H191.071C191.588 49.9851 191.955 50.121 192.172 50.3928C192.403 50.651 192.519 50.9772 192.519 51.3713C192.519 51.7926 192.376 52.146 192.091 52.4314C191.805 52.7032 191.397 52.8391 190.867 52.8391H184.996ZM190.889 52.8391L191.093 49.9851H196.964C197.48 49.9851 197.847 50.121 198.065 50.3928C198.296 50.651 198.411 50.9772 198.411 51.3713C198.411 51.7926 198.269 52.146 197.983 52.4314C197.698 52.7032 197.29 52.8391 196.76 52.8391H190.889ZM196.782 52.8391L196.986 49.9851H202.857C203.373 49.9851 203.74 50.121 203.958 50.3928C204.189 50.651 204.304 50.9772 204.304 51.3713C204.304 51.7926 204.161 52.146 203.876 52.4314C203.591 52.7032 203.183 52.8391 202.653 52.8391H196.782ZM202.675 52.8391L202.878 49.9851H208.75C209.266 49.9851 209.633 50.121 209.85 50.3928C210.081 50.651 210.197 50.9772 210.197 51.3713C210.197 51.7926 210.054 52.146 209.769 52.4314C209.483 52.7032 209.076 52.8391 208.546 52.8391H202.675ZM208.567 52.8391L208.771 49.9851C209.505 49.9851 210.232 49.9443 210.953 49.8628C211.673 49.7812 212.373 49.6589 213.052 49.4958C213.732 49.3327 214.377 49.1221 214.989 48.8639C215.614 48.6056 216.199 48.2931 216.742 47.9261C216.334 47.6815 215.893 47.4708 215.417 47.2942C214.941 47.1175 214.432 46.9884 213.888 46.9068C213.358 46.8117 212.794 46.7641 212.196 46.7641C211.979 46.7641 211.748 46.7709 211.503 46.7845C211.272 46.7981 211.034 46.8253 210.789 46.8661C210.545 46.8932 210.3 46.934 210.056 46.9884L209.648 44.1955C210.042 44.0868 210.456 44.012 210.891 43.9713C211.34 43.9169 211.734 43.8897 212.074 43.8897C212.808 43.8897 213.48 43.9713 214.092 44.1343C214.717 44.2974 215.288 44.5013 215.804 44.7459C216.334 44.9906 216.824 45.2352 217.272 45.4798C217.734 45.7244 218.169 45.9283 218.577 46.0914C218.998 46.2545 219.406 46.336 219.8 46.336H220.554L220.88 49.0473C220.296 49.0745 219.746 49.19 219.229 49.3939C218.726 49.5842 218.224 49.8288 217.721 50.1278C217.231 50.4132 216.701 50.7122 216.131 51.0248C215.573 51.3374 214.941 51.6296 214.235 51.9014C213.528 52.1732 212.713 52.3974 211.788 52.5741C210.864 52.7508 209.791 52.8391 208.567 52.8391Z" fill="white"/>
<rect width="55.8079" height="54.9991" rx="10.7329" fill="#760A21"/>
<circle cx="21.4336" cy="25.0731" r="7.27929" fill="white"/>
<circle cx="39.6303" cy="12.5366" r="5.25726" fill="white"/>
<circle cx="40.439" cy="36.3964" r="5.66167" fill="white"/>
<circle cx="14.5579" cy="39.6317" r="4.85286" fill="white"/>
<rect x="18.0391" y="29.8469" width="2.25376" height="6.47048" transform="rotate(27.803 18.0391 29.8469)" fill="white"/>
<rect x="26.2852" y="29.4513" width="2.31956" height="11.2534" transform="rotate(-60 26.2852 29.4513)" fill="white"/>
<rect x="27.5547" y="22.6599" width="2.31956" height="11.2534" transform="rotate(-123.19 27.5547 22.6599)" fill="white"/>
</svg>
