<svg width="103" height="104" viewBox="0 0 103 104" fill="none" xmlns="http://www.w3.org/2000/svg">
<path d="M79.1105 72.4157L80.768 85.9773C81.193 89.5394 77.4105 92.0286 74.393 90.1832L59.688 81.3423C58.668 80.7415 58.413 79.454 58.9655 78.424C61.0905 74.4757 62.238 70.0123 62.238 65.549C62.238 49.8415 48.893 37.0523 32.488 37.0523C29.1305 37.0523 25.858 37.5673 22.798 38.5973C21.2255 39.1123 19.6955 37.6532 20.078 36.0223C23.9455 20.4007 38.8205 8.77026 56.5855 8.77026C77.3255 8.77026 94.1129 24.6065 94.1129 44.1336C94.1129 55.7211 88.2055 65.9782 79.1105 72.4157Z" fill="white"/>
<path d="M55.8633 65.5489C55.8633 70.656 53.9933 75.3768 50.8483 79.1106C46.6408 84.2606 39.9683 87.5652 32.4883 87.5652L21.3958 94.2172C19.5258 95.376 17.1458 93.7881 17.4008 91.5993L18.4633 83.1447C12.7683 79.1535 9.11328 72.7589 9.11328 65.5489C9.11328 57.9956 13.1083 51.3435 19.2283 47.3952C23.0108 44.906 27.5583 43.4897 32.4883 43.4897C45.4083 43.4897 55.8633 53.3606 55.8633 65.5489Z" fill="white"/>
</svg>
