<svg width="44" height="44" viewBox="0 0 44 44" fill="none" xmlns="http://www.w3.org/2000/svg">
<path d="M32.9998 14.5017C32.9448 14.5017 32.9081 14.5017 32.8531 14.5017H32.7614C29.2964 14.3917 26.7114 11.7151 26.7114 8.41506C26.7114 5.04173 29.4614 2.31006 32.8164 2.31006C36.1714 2.31006 38.9214 5.06006 38.9214 8.41506C38.9031 11.7334 36.3181 14.4101 33.0181 14.5201C33.0181 14.5017 33.0181 14.5017 32.9998 14.5017ZM32.8164 5.04174C30.9648 5.04174 29.4614 6.54507 29.4614 8.39674C29.4614 10.2117 30.8731 11.6784 32.6881 11.7517C32.7064 11.7334 32.8531 11.7334 33.0181 11.7517C34.7964 11.6601 36.1714 10.1934 36.1898 8.39674C36.1898 6.54507 34.6864 5.04174 32.8164 5.04174Z" fill="#76A136"/>
<path d="M33.0183 28.0135C32.3033 28.0135 31.5883 27.9585 30.8733 27.8302C30.1216 27.7018 29.6266 26.9869 29.7549 26.2352C29.8833 25.4835 30.5983 24.9885 31.3499 25.1169C33.6049 25.5019 35.9883 25.0802 37.5833 24.0169C38.4449 23.4485 38.9033 22.7335 38.9033 22.0185C38.9033 21.3035 38.4266 20.6068 37.5833 20.0385C35.9883 18.9752 33.5683 18.5535 31.2949 18.9569C30.5433 19.1035 29.8283 18.5902 29.6999 17.8385C29.5716 17.0869 30.0666 16.3719 30.8183 16.2435C33.8066 15.7119 36.9049 16.2802 39.1049 17.7468C40.7183 18.8285 41.6533 20.3685 41.6533 22.0185C41.6533 23.6502 40.7366 25.2085 39.1049 26.3085C37.4366 27.4085 35.2733 28.0135 33.0183 28.0135Z" fill="#76A136"/>
<path d="M10.9449 14.5015C10.9266 14.5015 10.9082 14.5015 10.9082 14.5015C7.60822 14.3915 5.02322 11.7148 5.00488 8.41483C5.00488 5.0415 7.75489 2.2915 11.1099 2.2915C14.4649 2.2915 17.2149 5.04151 17.2149 8.39651C17.2149 11.7148 14.6299 14.3915 11.3299 14.5015L10.9449 13.1265L11.0732 14.5015C11.0366 14.5015 10.9816 14.5015 10.9449 14.5015ZM11.1282 11.7515C11.2382 11.7515 11.3299 11.7515 11.4399 11.7698C13.0716 11.6965 14.5015 10.2298 14.5015 8.41483C14.5015 6.56316 12.9982 5.05983 11.1466 5.05983C9.29489 5.05983 7.79155 6.56316 7.79155 8.41483C7.79155 10.2115 9.18488 11.6598 10.9632 11.7698C10.9815 11.7515 11.0549 11.7515 11.1282 11.7515Z" fill="#76A136"/>
<path d="M10.9265 28.0135C8.6715 28.0135 6.50817 27.4085 4.83984 26.3085C3.2265 25.2269 2.2915 23.6685 2.2915 22.0185C2.2915 20.3869 3.2265 18.8285 4.83984 17.7468C7.03984 16.2802 10.1382 15.7119 13.1265 16.2435C13.8782 16.3719 14.3732 17.0869 14.2448 17.8385C14.1165 18.5902 13.4015 19.1035 12.6498 18.9569C10.3765 18.5535 7.97484 18.9752 6.36151 20.0385C5.49984 20.6068 5.0415 21.3035 5.0415 22.0185C5.0415 22.7335 5.51817 23.4485 6.36151 24.0169C7.95651 25.0802 10.3398 25.5019 12.5948 25.1169C13.3465 24.9885 14.0615 25.5019 14.1898 26.2352C14.3182 26.9869 13.8232 27.7018 13.0715 27.8302C12.3565 27.9585 11.6415 28.0135 10.9265 28.0135Z" fill="#76A136"/>
<path d="M21.9998 28.1966C21.9448 28.1966 21.9081 28.1966 21.8531 28.1966H21.7614C18.2964 28.0866 15.7114 25.4099 15.7114 22.1099C15.7114 18.7366 18.4614 16.0049 21.8164 16.0049C25.1714 16.0049 27.9214 18.7549 27.9214 22.1099C27.9031 25.4282 25.3181 28.1049 22.0181 28.2149C22.0181 28.1966 22.0181 28.1966 21.9998 28.1966ZM21.8164 18.7366C19.9648 18.7366 18.4614 20.2399 18.4614 22.0916C18.4614 23.9066 19.8731 25.3732 21.6881 25.4466C21.7064 25.4282 21.8531 25.4282 22.0181 25.4466C23.7964 25.3549 25.1714 23.8882 25.1898 22.0916C25.1898 20.2582 23.6864 18.7366 21.8164 18.7366Z" fill="#76A136"/>
<path d="M21.9995 41.7268C19.7995 41.7268 17.5995 41.1585 15.8945 40.0035C14.2812 38.9218 13.3462 37.3818 13.3462 35.7318C13.3462 34.1002 14.2629 32.5235 15.8945 31.4418C19.3229 29.1685 24.6945 29.1685 28.1045 31.4418C29.7179 32.5235 30.6529 34.0635 30.6529 35.7135C30.6529 37.3452 29.7362 38.9218 28.1045 40.0035C26.3995 41.1402 24.1995 41.7268 21.9995 41.7268ZM17.4162 33.7518C16.5545 34.3202 16.0962 35.0352 16.0962 35.7502C16.0962 36.4652 16.5729 37.1618 17.4162 37.7302C19.8912 39.3985 24.0895 39.3985 26.5645 37.7302C27.4262 37.1618 27.8845 36.4468 27.8845 35.7318C27.8845 35.0168 27.4079 34.3202 26.5645 33.7518C24.1079 32.0835 19.9095 32.1018 17.4162 33.7518Z" fill="#76A136"/>
</svg>
