<svg width="89" height="89" viewBox="0 0 89 89" fill="none" xmlns="http://www.w3.org/2000/svg">
<path d="M64.3129 29.4183C64.0563 29.3816 63.7996 29.3816 63.5429 29.4183C57.8596 29.235 53.3496 24.5783 53.3496 18.8583C53.3496 13.0283 58.0796 8.26163 63.9463 8.26163C69.7763 8.26163 74.5429 12.9916 74.5429 18.8583C74.5063 24.5783 69.9963 29.235 64.3129 29.4183Z" fill="#292D32"/>
<path d="M76.2657 54.8283C72.159 57.5783 66.4023 58.605 61.0857 57.9083C62.479 54.9016 63.2123 51.565 63.249 48.045C63.249 44.3783 62.4423 40.895 60.9023 37.8516C66.329 37.1183 72.0857 38.145 76.229 40.895C82.0223 44.7083 82.0223 50.9783 76.2657 54.8283Z" fill="#292D32"/>
<path d="M23.6494 29.4183C23.9061 29.3816 24.1627 29.3816 24.4194 29.4183C30.1027 29.235 34.6127 24.5783 34.6127 18.8583C34.6127 12.9916 29.8827 8.26163 24.0161 8.26163C18.1861 8.26163 13.4561 12.9916 13.4561 18.8583C13.4561 24.5783 17.9661 29.235 23.6494 29.4183Z" fill="#292D32"/>
<path d="M24.0532 48.045C24.0532 51.6016 24.8232 54.975 26.2166 58.0183C21.0466 58.5683 15.6566 57.4683 11.6966 54.865C5.90323 51.015 5.90323 44.745 11.6966 40.895C15.6199 38.255 21.1566 37.1916 26.3632 37.7783C24.8599 40.8583 24.0532 44.3416 24.0532 48.045Z" fill="#292D32"/>
<path d="M44.4757 59.1183C44.1824 59.0816 43.8524 59.0816 43.5224 59.1183C36.7757 58.8983 31.3857 53.3616 31.3857 46.5416C31.4224 39.5749 37.0324 33.9283 44.0357 33.9283C51.0024 33.9283 56.6491 39.5749 56.6491 46.5416C56.6124 53.3616 51.2591 58.8983 44.4757 59.1183Z" fill="#292D32"/>
<path d="M32.5597 66.7083C27.0231 70.4116 27.0231 76.4983 32.5597 80.1649C38.8664 84.3816 49.2064 84.3816 55.5131 80.1649C61.0497 76.4616 61.0497 70.3749 55.5131 66.7083C49.2431 62.4916 38.9031 62.4916 32.5597 66.7083Z" fill="#292D32"/>
</svg>
