<svg width="71" height="73" viewBox="0 0 71 73" fill="none" xmlns="http://www.w3.org/2000/svg">
<mask id="mask0_1_1352" style="mask-type:alpha" maskUnits="userSpaceOnUse" x="0" y="2" width="71" height="71">
<path d="M70.0546 2.52222H0V72.5768H70.0546V2.52222Z" fill="#D9D9D9"/>
</mask>
<g mask="url(#mask0_1_1352)">
<path d="M27.3981 45.3176C27.3981 46.5741 28.7853 47.3355 29.8454 46.6606L44.2855 37.4664C45.2682 36.8407 45.2682 35.406 44.2855 34.7804L29.8454 25.5862C28.7853 24.9113 27.3981 25.6727 27.3981 26.9292V45.3176ZM34.2996 64.5831C30.4101 64.5831 26.734 63.8361 23.2714 62.3418C19.8088 60.8477 16.785 58.808 14.1999 56.223C11.6148 53.638 9.57517 50.614 8.08105 47.1514C6.58691 43.689 5.83984 40.0129 5.83984 36.1234C5.83984 32.1865 6.58691 28.4867 8.08105 25.0241C9.57517 21.5614 11.6148 18.5496 14.1999 15.9882C16.785 13.4268 19.8088 11.399 23.2714 9.9049C26.734 8.41076 30.4101 7.6637 34.2996 7.6637C38.2365 7.6637 41.9362 8.41076 45.3988 9.9049C48.8614 11.399 51.8734 13.4268 54.4347 15.9882C56.9961 18.5496 59.0239 21.5614 60.518 25.0241C62.0121 28.4867 62.7593 32.1865 62.7593 36.1234C62.7593 40.0129 62.0121 43.689 60.518 47.1514C59.0239 50.614 56.9961 53.638 54.4347 56.223C51.8734 58.808 48.8614 60.8477 45.3988 62.3418C41.9362 63.8361 38.2365 64.5831 34.2996 64.5831Z" fill="white"/>
</g>
</svg>
