<svg width="44" height="44" viewBox="0 0 44 44" fill="none" xmlns="http://www.w3.org/2000/svg">
<path opacity="0.2" d="M18.2334 24.3115H6.75298C6.39477 24.3115 6.05123 24.1692 5.79794 23.9159C5.54464 23.6626 5.40234 23.3191 5.40234 22.9609V12.1558C5.40234 11.7976 5.54464 11.4541 5.79794 11.2008C6.05123 10.9475 6.39477 10.8052 6.75298 10.8052H16.8827C17.241 10.8052 17.5845 10.9475 17.8378 11.2008C18.0911 11.4541 18.2334 11.7976 18.2334 12.1558V24.3115Z" fill="#76A136"/>
<path opacity="0.2" d="M37.8174 24.3115H26.337C25.9788 24.3115 25.6352 24.1692 25.3819 23.9159C25.1286 23.6626 24.9863 23.3191 24.9863 22.9609V12.1558C24.9863 11.7976 25.1286 11.4541 25.3819 11.2008C25.6352 10.9475 25.9788 10.8052 26.337 10.8052H36.4667C36.8249 10.8052 37.1685 10.9475 37.4218 11.2008C37.6751 11.4541 37.8174 11.7976 37.8174 12.1558V24.3115Z" fill="#76A136"/>
<path d="M18.2334 24.3115H6.75298C6.39477 24.3115 6.05123 24.1692 5.79794 23.9159C5.54464 23.6626 5.40234 23.3191 5.40234 22.9609V12.1558C5.40234 11.7976 5.54464 11.4541 5.79794 11.2008C6.05123 10.9475 6.39477 10.8052 6.75298 10.8052H16.8827C17.241 10.8052 17.5845 10.9475 17.8378 11.2008C18.0911 11.4541 18.2334 11.7976 18.2334 12.1558V27.0128C18.2334 28.8039 17.5219 30.5216 16.2554 31.788C14.989 33.0545 13.2713 33.766 11.4802 33.766" stroke="#76A136" stroke-width="1.80085" stroke-linecap="round" stroke-linejoin="round"/>
<path d="M37.8174 24.3115H26.337C25.9788 24.3115 25.6352 24.1692 25.3819 23.9159C25.1286 23.6626 24.9863 23.3191 24.9863 22.9609V12.1558C24.9863 11.7976 25.1286 11.4541 25.3819 11.2008C25.6352 10.9475 25.9788 10.8052 26.337 10.8052H36.4667C36.8249 10.8052 37.1685 10.9475 37.4218 11.2008C37.6751 11.4541 37.8174 11.7976 37.8174 12.1558V27.0128C37.8174 28.8039 37.1059 30.5216 35.8394 31.788C34.5729 33.0545 32.8552 33.766 31.0642 33.766" stroke="#76A136" stroke-width="1.80085" stroke-linecap="round" stroke-linejoin="round"/>
</svg>
