<svg width="71" height="71" viewBox="0 0 71 71" fill="none" xmlns="http://www.w3.org/2000/svg">
<path d="M61.8591 32.8968V19.9097C61.8591 17.4839 60.0249 14.7326 57.747 13.8155L41.2691 7.07053C37.5712 5.56178 33.3999 5.56178 29.702 7.07053L13.2241 13.8155C10.9758 14.7326 9.1416 17.4839 9.1416 19.9097V32.8968C9.1416 47.363 19.6437 60.9122 33.9916 64.8764C34.9678 65.1426 36.0329 65.1426 37.0091 64.8764C51.357 60.9122 61.8591 47.363 61.8591 32.8968ZM37.7191 38.0739V45.8543C37.7191 47.0672 36.7133 48.073 35.5004 48.073C34.2874 48.073 33.2816 47.0672 33.2816 45.8543V38.0739C30.2937 37.1272 28.1045 34.3464 28.1045 31.0626C28.1045 26.9801 31.4179 23.6668 35.5004 23.6668C39.5828 23.6668 42.8962 26.9801 42.8962 31.0626C42.8962 34.3759 40.707 37.1272 37.7191 38.0739Z" fill="#0E76A8"/>
</svg>
