<svg width="89" height="89" viewBox="0 0 89 89" fill="none" xmlns="http://www.w3.org/2000/svg">
<path d="M74.7832 47.6049C73.4266 47.6049 72.2899 46.5783 72.1432 45.2216C71.2632 37.1549 66.9366 29.8949 60.2632 25.2749C59.0532 24.4316 58.7599 22.7816 59.6032 21.5716C60.4466 20.3616 62.0966 20.0683 63.3066 20.9116C71.2632 26.4483 76.3966 35.1016 77.4599 44.6716C77.6066 46.1383 76.5432 47.4583 75.0766 47.6049C74.9666 47.6049 74.8932 47.6049 74.7832 47.6049Z" fill="white"/>
<path d="M13.843 47.7883C13.7696 47.7883 13.6596 47.7883 13.5863 47.7883C12.1196 47.6416 11.0563 46.3216 11.203 44.855C12.193 35.285 17.253 26.6316 25.1363 21.0583C26.3096 20.215 27.9963 20.5083 28.8396 21.6816C29.683 22.8916 29.3896 24.5416 28.2163 25.385C21.6163 30.0783 17.3263 37.3383 16.5196 45.3683C16.373 46.7616 15.1996 47.7883 13.843 47.7883Z" fill="white"/>
<path d="M58.7598 78.2949C54.2498 80.4583 49.4098 81.5583 44.3498 81.5583C39.0698 81.5583 34.0464 80.3849 29.3531 78.0016C28.0331 77.3783 27.5198 75.7649 28.1798 74.4449C28.8031 73.1249 30.4164 72.6116 31.7364 73.2349C34.0464 74.4083 36.5031 75.2149 38.9964 75.6916C42.3698 76.3516 45.8164 76.3883 49.1898 75.8016C51.6831 75.3616 54.1398 74.5916 56.4131 73.4916C57.7698 72.8683 59.3831 73.3816 59.9698 74.7383C60.6298 76.0583 60.1164 77.6716 58.7598 78.2949Z" fill="white"/>
<path d="M44.3136 8.29828C38.6303 8.29828 33.9736 12.9183 33.9736 18.6383C33.9736 24.3583 38.5936 28.9783 44.3136 28.9783C50.0336 28.9783 54.6536 24.3583 54.6536 18.6383C54.6536 12.9183 50.0336 8.29828 44.3136 8.29828Z" fill="white"/>
<path d="M18.6466 51.7849C12.9633 51.7849 8.30664 56.4049 8.30664 62.1249C8.30664 67.8449 12.9266 72.4649 18.6466 72.4649C24.3666 72.4649 28.9866 67.8449 28.9866 62.1249C28.9866 56.4049 24.33 51.7849 18.6466 51.7849Z" fill="white"/>
<path d="M69.6134 51.7849C63.9301 51.7849 59.2734 56.4049 59.2734 62.1249C59.2734 67.8449 63.8934 72.4649 69.6134 72.4649C75.3334 72.4649 79.9534 67.8449 79.9534 62.1249C79.9534 56.4049 75.3334 51.7849 69.6134 51.7849Z" fill="white"/>
</svg>
