<svg width="44" height="44" viewBox="0 0 44 44" fill="none" xmlns="http://www.w3.org/2000/svg">
<path d="M37.3267 23.3382C36.6483 23.3382 36.08 22.8249 36.0067 22.1466C35.5667 18.1132 33.4033 14.4832 30.0667 12.1732C29.4617 11.7516 29.315 10.9266 29.7367 10.3216C30.1583 9.71656 30.9833 9.56989 31.5883 9.99156C35.5667 12.7599 38.1333 17.0866 38.665 21.8716C38.7383 22.6049 38.2067 23.2649 37.4733 23.3382C37.4183 23.3382 37.3817 23.3382 37.3267 23.3382Z" fill="#76A136"/>
<path d="M6.85654 23.4299C6.81988 23.4299 6.76488 23.4299 6.72821 23.4299C5.99488 23.3565 5.46321 22.6965 5.53654 21.9632C6.03154 17.1782 8.56154 12.8515 12.5032 10.0649C13.0899 9.64321 13.9332 9.78988 14.3549 10.3765C14.7765 10.9815 14.6299 11.8065 14.0432 12.2282C10.7432 14.5749 8.59821 18.2049 8.19488 22.2199C8.12154 22.9165 7.53488 23.4299 6.85654 23.4299Z" fill="#76A136"/>
<path d="M29.3149 38.6833C27.0599 39.765 24.6399 40.315 22.1099 40.315C19.4699 40.315 16.9583 39.7283 14.6116 38.5366C13.9516 38.225 13.6949 37.4183 14.0249 36.7583C14.3366 36.0983 15.1433 35.8416 15.8033 36.1533C16.9583 36.74 18.1866 37.1433 19.4333 37.3816C21.1199 37.7116 22.8433 37.73 24.5299 37.4366C25.7766 37.2166 27.0049 36.8316 28.1416 36.2816C28.8199 35.97 29.6266 36.2266 29.9199 36.905C30.2499 37.565 29.9933 38.3716 29.3149 38.6833Z" fill="#76A136"/>
<path d="M22.0919 3.68506C19.2502 3.68506 16.9219 5.99506 16.9219 8.85506C16.9219 11.7151 19.2319 14.0251 22.0919 14.0251C24.9519 14.0251 27.2619 11.7151 27.2619 8.85506C27.2619 5.99506 24.9519 3.68506 22.0919 3.68506Z" fill="#76A136"/>
<path d="M9.25838 25.4282C6.41671 25.4282 4.08838 27.7382 4.08838 30.5982C4.08838 33.4582 6.39838 35.7682 9.25838 35.7682C12.1184 35.7682 14.4284 33.4582 14.4284 30.5982C14.4284 27.7382 12.1 25.4282 9.25838 25.4282Z" fill="#76A136"/>
<path d="M34.7418 25.4282C31.9001 25.4282 29.5718 27.7382 29.5718 30.5982C29.5718 33.4582 31.8818 35.7682 34.7418 35.7682C37.6018 35.7682 39.9118 33.4582 39.9118 30.5982C39.9118 27.7382 37.6018 25.4282 34.7418 25.4282Z" fill="#76A136"/>
</svg>
