<svg width="103" height="103" viewBox="0 0 103 103" fill="none" xmlns="http://www.w3.org/2000/svg">
<path d="M87.1429 54.2893C85.5704 54.2893 84.2529 53.0993 84.0829 51.5268C83.0629 42.1768 78.0479 33.7618 70.3129 28.4068C68.9104 27.4293 68.5704 25.5168 69.5479 24.1143C70.5254 22.7118 72.4379 22.3718 73.8404 23.3493C83.0629 29.7668 89.0129 39.7968 90.2454 50.8893C90.4154 52.5893 89.1829 54.1193 87.4829 54.2893C87.3554 54.2893 87.2704 54.2893 87.1429 54.2893Z" fill="white"/>
<path d="M16.5083 54.5019C16.4233 54.5019 16.2958 54.5019 16.2108 54.5019C14.5108 54.3319 13.2783 52.8019 13.4483 51.1019C14.5958 40.0094 20.4608 29.9794 29.5983 23.5194C30.9583 22.5419 32.9133 22.8819 33.8908 24.2419C34.8683 25.6444 34.5283 27.5569 33.1683 28.5344C25.5183 33.9744 20.5458 42.3894 19.6108 51.6969C19.4408 53.3119 18.0808 54.5019 16.5083 54.5019Z" fill="white"/>
<path d="M68.5708 89.8618C63.3433 92.3693 57.7333 93.6443 51.8683 93.6443C45.7483 93.6443 39.9258 92.2843 34.4858 89.5218C32.9558 88.7993 32.3608 86.9293 33.1258 85.3993C33.8483 83.8693 35.7183 83.2743 37.2483 83.9968C39.9258 85.3568 42.7733 86.2918 45.6633 86.8443C49.5733 87.6093 53.5683 87.6518 57.4783 86.9718C60.3683 86.4618 63.2158 85.5693 65.8508 84.2943C67.4233 83.5718 69.2933 84.1668 69.9733 85.7393C70.7383 87.2693 70.1433 89.1393 68.5708 89.8618Z" fill="white"/>
<path d="M51.8258 8.72937C45.2383 8.72937 39.8408 14.0844 39.8408 20.7144C39.8408 27.3444 45.1958 32.6994 51.8258 32.6994C58.4558 32.6994 63.8108 27.3444 63.8108 20.7144C63.8108 14.0844 58.4558 8.72937 51.8258 8.72937Z" fill="white"/>
<path d="M22.0758 59.1344C15.4883 59.1344 10.0908 64.4894 10.0908 71.1194C10.0908 77.7494 15.4458 83.1044 22.0758 83.1044C28.7058 83.1044 34.0608 77.7494 34.0608 71.1194C34.0608 64.4894 28.6633 59.1344 22.0758 59.1344Z" fill="white"/>
<path d="M81.151 59.1344C74.5635 59.1344 69.166 64.4894 69.166 71.1194C69.166 77.7494 74.521 83.1044 81.151 83.1044C87.781 83.1044 93.136 77.7494 93.136 71.1194C93.136 64.4894 87.781 59.1344 81.151 59.1344Z" fill="white"/>
</svg>
