<svg width="62" height="62" viewBox="0 0 62 62" fill="none" xmlns="http://www.w3.org/2000/svg">
<path d="M43.917 9.04166H18.0837C10.3337 9.04166 5.16699 12.9167 5.16699 21.9583V40.0417C5.16699 49.0833 10.3337 52.9583 18.0837 52.9583H43.917C51.667 52.9583 56.8337 49.0833 56.8337 40.0417V21.9583C56.8337 12.9167 51.667 9.04166 43.917 9.04166ZM45.1312 24.7742L37.0453 31.2325C35.3403 32.6017 33.1703 33.2733 31.0003 33.2733C28.8303 33.2733 26.6345 32.6017 24.9553 31.2325L16.8695 24.7742C16.0428 24.1025 15.9137 22.8625 16.5595 22.0358C17.2312 21.2092 18.4453 21.0542 19.272 21.7258L27.3578 28.1842C29.3212 29.76 32.6537 29.76 34.617 28.1842L42.7028 21.7258C43.5295 21.0542 44.7695 21.1833 45.4153 22.0358C46.087 22.8625 45.9578 24.1025 45.1312 24.7742Z" fill="#292D32"/>
</svg>
