<svg width="89" height="89" viewBox="0 0 89 89" fill="none" xmlns="http://www.w3.org/2000/svg">
<path d="M62.5557 13.7616H25.889C14.889 13.7616 7.55566 19.2616 7.55566 32.095V57.7616C7.55566 70.595 14.889 76.095 25.889 76.095H62.5557C73.5557 76.095 80.889 70.595 80.889 57.7616V32.095C80.889 19.2616 73.5557 13.7616 62.5557 13.7616ZM64.279 36.0916L52.8023 45.2583C50.3823 47.2016 47.3023 48.155 44.2223 48.155C41.1423 48.155 38.0257 47.2016 35.6423 45.2583L24.1657 36.0916C22.9923 35.1383 22.809 33.3783 23.7257 32.205C24.679 31.0316 26.4023 30.8116 27.5757 31.765L39.0523 40.9316C41.839 43.1683 46.569 43.1683 49.3557 40.9316L60.8323 31.765C62.0057 30.8116 63.7657 30.995 64.6823 32.205C65.6357 33.3783 65.4523 35.1383 64.279 36.0916Z" fill="white"/>
</svg>
