<svg width="102" height="24" viewBox="0 0 102 24" fill="none" xmlns="http://www.w3.org/2000/svg">
<path d="M90.5517 3.40968L92.1354 6.27363C92.3524 6.66674 92.897 7.04019 93.3448 7.09067L96.0107 7.42576C97.7175 7.63662 98.1577 8.84795 96.9961 10.1168L95.017 12.2662C94.6867 12.6264 94.5152 13.3136 94.6479 13.7853L95.3413 16.3159C95.8867 18.3138 94.8495 19.142 93.0268 18.1606L90.4806 16.7894C90.0169 16.5388 89.2803 16.5753 88.8446 16.8567L86.4207 18.4256C84.6856 19.547 83.5814 18.8088 83.9622 16.7746L84.4497 14.2002C84.5408 13.7189 84.3225 13.0474 83.9623 12.717L81.801 10.7348C80.5397 9.56892 80.879 8.32627 82.5598 7.97397L85.1842 7.42578C85.6271 7.32957 86.1404 6.92357 86.3206 6.51048L87.6651 3.52105C88.4001 1.9104 89.6967 1.85965 90.5517 3.40968Z" fill="#FFC728"/>
<path d="M70.9833 3.40968L72.567 6.27363C72.784 6.66674 73.3286 7.04019 73.7765 7.09067L76.4423 7.42576C78.1491 7.63662 78.5893 8.84795 77.4277 10.1168L75.4487 12.2662C75.1183 12.6264 74.9468 13.3136 75.0796 13.7853L75.773 16.3159C76.3184 18.3138 75.2812 19.142 73.4585 18.1606L70.9123 16.7894C70.4485 16.5388 69.7119 16.5753 69.2763 16.8567L66.8524 18.4256C65.1172 19.547 64.0131 18.8088 64.3938 16.7746L64.8814 14.2002C64.9724 13.7189 64.7542 13.0474 64.3939 12.717L62.2327 10.7348C60.9713 9.56892 61.3106 8.32627 62.9914 7.97397L65.6158 7.42578C66.0587 7.32957 66.572 6.92357 66.7522 6.51048L68.0968 3.52105C68.8317 1.9104 70.1283 1.85965 70.9833 3.40968Z" fill="#FFC728"/>
<path d="M51.4169 3.40968L53.0006 6.27363C53.2176 6.66674 53.7622 7.04019 54.2101 7.09067L56.8759 7.42576C58.5827 7.63662 59.0229 8.84795 57.8613 10.1168L55.8823 12.2662C55.5519 12.6264 55.3804 13.3136 55.5131 13.7853L56.2066 16.3159C56.752 18.3138 55.7148 19.142 53.8921 18.1606L51.3458 16.7894C50.8821 16.5388 50.1455 16.5753 49.7099 16.8567L47.286 18.4256C45.5508 19.547 44.4467 18.8088 44.8274 16.7746L45.315 14.2002C45.406 13.7189 45.1877 13.0474 44.8275 12.717L42.6663 10.7348C41.4049 9.56892 41.7442 8.32627 43.425 7.97397L46.0494 7.42578C46.4923 7.32957 47.0056 6.92357 47.1858 6.51048L48.5304 3.52105C49.2653 1.9104 50.5619 1.85965 51.4169 3.40968Z" fill="#FFC728"/>
<path d="M31.8486 3.40968L33.4323 6.27363C33.6493 6.66674 34.1939 7.04019 34.6417 7.09067L37.3075 7.42576C39.0144 7.63662 39.4545 8.84795 38.2929 10.1168L36.3139 12.2662C35.9835 12.6264 35.812 13.3136 35.9448 13.7853L36.6382 16.3159C37.1836 18.3138 36.1464 19.142 34.3237 18.1606L31.7775 16.7894C31.3138 16.5388 30.5772 16.5753 30.1415 16.8567L27.7176 18.4256C25.9824 19.547 24.8783 18.8088 25.259 16.7746L25.7466 14.2002C25.8376 13.7189 25.6194 13.0474 25.2592 12.717L23.0979 10.7348C21.8366 9.56892 22.1759 8.32627 23.8566 7.97397L26.481 7.42578C26.924 7.32957 27.4372 6.92357 27.6174 6.51048L28.962 3.52105C29.6969 1.9104 30.9935 1.85965 31.8486 3.40968Z" fill="#FFC728"/>
<path d="M12.2802 3.40968L13.8639 6.27363C14.0809 6.66674 14.6255 7.04019 15.0734 7.09067L17.7392 7.42576C19.446 7.63662 19.8862 8.84795 18.7246 10.1168L16.7455 12.2662C16.4152 12.6264 16.2437 13.3136 16.3764 13.7853L17.0698 16.3159C17.6152 18.3138 16.578 19.142 14.7553 18.1606L12.2091 16.7894C11.7454 16.5388 11.0088 16.5753 10.5731 16.8567L8.14925 18.4256C6.41408 19.547 5.30994 18.8088 5.69068 16.7746L6.17824 14.2002C6.26927 13.7189 6.05103 13.0474 5.69082 12.717L3.52955 10.7348C2.26822 9.56892 2.60751 8.32627 4.28828 7.97397L6.91268 7.42578C7.35559 7.32957 7.86887 6.92357 8.04908 6.51048L9.39363 3.52105C10.1286 1.9104 11.4252 1.85965 12.2802 3.40968Z" fill="#FFC728"/>
</svg>
