<svg width="103" height="103" viewBox="0 0 103 103" fill="none" xmlns="http://www.w3.org/2000/svg">
<path d="M69.785 8.68689H34.17C18.7 8.68689 9.47754 17.9094 9.47754 33.3794V68.9519C9.47754 84.4644 18.7 93.6869 34.17 93.6869H69.7425C85.2125 93.6869 94.435 84.4644 94.435 68.9944V33.3794C94.4775 17.9094 85.255 8.68689 69.785 8.68689ZM33.405 77.3244C33.405 79.0669 31.96 80.5119 30.2175 80.5119C28.475 80.5119 27.03 79.0669 27.03 77.3244V68.5269C27.03 66.7844 28.475 65.3394 30.2175 65.3394C31.96 65.3394 33.405 66.7844 33.405 68.5269V77.3244ZM55.165 77.3244C55.165 79.0669 53.72 80.5119 51.9775 80.5119C50.235 80.5119 48.79 79.0669 48.79 77.3244V59.6869C48.79 57.9444 50.235 56.4994 51.9775 56.4994C53.72 56.4994 55.165 57.9444 55.165 59.6869V77.3244ZM76.925 77.3244C76.925 79.0669 75.48 80.5119 73.7375 80.5119C71.995 80.5119 70.55 79.0669 70.55 77.3244V50.8894C70.55 49.1469 71.995 47.7019 73.7375 47.7019C75.48 47.7019 76.925 49.1469 76.925 50.8894V77.3244ZM76.925 37.4594C76.925 39.2019 75.48 40.6469 73.7375 40.6469C71.995 40.6469 70.55 39.2019 70.55 37.4594V33.3369C59.7125 44.4719 46.155 52.3344 30.9825 56.1169C30.7275 56.2019 30.4725 56.2019 30.2175 56.2019C28.7725 56.2019 27.4975 55.2244 27.115 53.7794C26.69 52.0794 27.71 50.3369 29.4525 49.9119C43.775 46.3419 56.525 38.8194 66.64 28.1944H61.3275C59.585 28.1944 58.14 26.7494 58.14 25.0069C58.14 23.2644 59.585 21.8194 61.3275 21.8194H73.78C73.95 21.8194 74.0775 21.9044 74.2475 21.9044C74.46 21.9469 74.6725 21.9469 74.885 22.0319C75.0975 22.1169 75.2675 22.2444 75.48 22.3719C75.6075 22.4569 75.735 22.4994 75.8625 22.5844C75.905 22.6269 75.905 22.6694 75.9475 22.6694C76.1175 22.8394 76.245 23.0094 76.3725 23.1794C76.5 23.3494 76.6275 23.4769 76.67 23.6469C76.755 23.8169 76.755 23.9869 76.7975 24.1994C76.84 24.4119 76.925 24.6244 76.925 24.8794C76.925 24.9219 76.9675 24.9644 76.9675 25.0069V37.4594H76.925Z" fill="white"/>
</svg>
