<svg width="89" height="89" viewBox="0 0 89 89" fill="none" xmlns="http://www.w3.org/2000/svg">
<path d="M80.7965 18.7116V62.3083C80.7965 65.8649 77.8999 69.1283 74.3432 69.5683L73.2065 69.7149C67.1932 70.5216 58.7232 73.0149 51.9032 75.8749C49.5199 76.8649 46.8799 75.0683 46.8799 72.4649V21.4616C46.8799 20.1049 47.6499 18.8583 48.8599 18.1983C55.5699 14.5683 65.7266 11.3416 72.6199 10.7549H72.8399C77.2399 10.7549 80.7965 14.3116 80.7965 18.7116Z" fill="#292D32"/>
<path d="M39.4001 18.1983C32.6901 14.5683 22.5334 11.3416 15.6401 10.7549H15.3834C10.9834 10.7549 7.42676 14.3116 7.42676 18.7116V62.3083C7.42676 65.8649 10.3234 69.1283 13.8801 69.5683L15.0168 69.7149C21.0301 70.5216 29.5001 73.0149 36.3201 75.8749C38.7034 76.8649 41.3434 75.0683 41.3434 72.4649V21.4616C41.3434 20.0683 40.6101 18.8583 39.4001 18.1983ZM18.4634 29.3083H26.7134C28.2168 29.3083 29.4634 30.5549 29.4634 32.0583C29.4634 33.5983 28.2168 34.8083 26.7134 34.8083H18.4634C16.9601 34.8083 15.7134 33.5983 15.7134 32.0583C15.7134 30.5549 16.9601 29.3083 18.4634 29.3083ZM29.4634 45.8083H18.4634C16.9601 45.8083 15.7134 44.5983 15.7134 43.0583C15.7134 41.5549 16.9601 40.3083 18.4634 40.3083H29.4634C30.9668 40.3083 32.2134 41.5549 32.2134 43.0583C32.2134 44.5983 30.9668 45.8083 29.4634 45.8083Z" fill="#292D32"/>
</svg>
