<svg width="20" height="20" viewBox="0 0 20 20" fill="none" xmlns="http://www.w3.org/2000/svg">
<path d="M15.5608 4.16594C14.0366 2.63814 12.0068 1.79785 9.8497 1.79785C5.39726 1.79785 1.77419 5.42092 1.77419 9.87336C1.77419 11.2957 2.14523 12.6852 2.85093 13.9111L1.70508 18.0944L5.98655 16.9703C7.16514 17.6142 8.49287 17.9525 9.84606 17.9525H9.8497C14.2985 17.9525 18.0016 14.3294 18.0016 9.877C18.0016 7.71989 17.0849 5.69374 15.5608 4.16594ZM9.8497 16.592C8.64201 16.592 7.45978 16.2683 6.43034 15.6572L6.18662 15.5117L3.64756 16.1773L4.32416 13.7001L4.16411 13.4455C3.49115 12.376 3.1383 11.1429 3.1383 9.87336C3.1383 6.1739 6.15024 3.16196 9.85334 3.16196C11.6467 3.16196 13.3309 3.86038 14.5968 5.12991C15.8627 6.39944 16.6411 8.08365 16.6375 9.877C16.6375 13.5801 13.5492 16.592 9.8497 16.592ZM13.531 11.5648C13.3309 11.463 12.3378 10.9756 12.1523 10.9101C11.9668 10.841 11.8322 10.8082 11.6976 11.0119C11.563 11.2156 11.1774 11.6667 11.0574 11.8049C10.941 11.9395 10.8209 11.9577 10.6209 11.8559C9.43501 11.2629 8.65656 10.7973 7.87447 9.45503C7.66713 9.09855 8.08182 9.12401 8.4674 8.35283C8.53288 8.21824 8.50014 8.10184 8.44922 7.99999C8.39829 7.89813 7.99451 6.90506 7.82718 6.50129C7.66349 6.10843 7.49616 6.16299 7.37248 6.15571C7.25608 6.14844 7.12149 6.14844 6.9869 6.14844C6.8523 6.14844 6.63405 6.19937 6.44853 6.39944C6.26301 6.60314 5.74283 7.09058 5.74283 8.08365C5.74283 9.07672 6.46672 10.0371 6.56493 10.1716C6.66679 10.3062 7.98724 12.3433 10.0134 13.22C11.2938 13.7729 11.7958 13.8202 12.436 13.7256C12.8253 13.6674 13.6292 13.2382 13.7965 12.7653C13.9638 12.2924 13.9638 11.8886 13.9129 11.8049C13.8656 11.714 13.731 11.6631 13.531 11.5648Z" fill="white"/>
</svg>
