<svg width="20" height="16" viewBox="0 0 20 16" fill="none" xmlns="http://www.w3.org/2000/svg">
<path d="M17.5363 4.15653C17.5481 4.32196 17.5481 4.48744 17.5481 4.65288C17.5481 9.69898 13.7074 15.5133 6.68771 15.5133C4.52508 15.5133 2.5161 14.8869 0.826172 13.7997C1.13344 13.8352 1.42885 13.847 1.74794 13.847C3.53238 13.847 5.17505 13.2443 6.48681 12.2162C4.8087 12.1807 3.4024 11.0817 2.91787 9.56901C3.15425 9.60444 3.39058 9.62808 3.63878 9.62808C3.98148 9.62808 4.32421 9.58079 4.64327 9.49811C2.89426 9.14355 1.58247 7.60728 1.58247 5.75191V5.70466C2.09061 5.98828 2.68154 6.16554 3.30783 6.18915C2.27969 5.50372 1.60611 4.33379 1.60611 3.0102C1.60611 2.30116 1.79516 1.65119 2.12607 1.08394C4.00508 3.40019 6.82951 4.91282 9.9966 5.0783C9.93752 4.79467 9.90206 4.49926 9.90206 4.20381C9.90206 2.10025 11.6038 0.386719 13.7192 0.386719C14.8182 0.386719 15.8109 0.847605 16.5081 1.59212C17.3708 1.42668 18.198 1.10759 18.9307 0.670344C18.6471 1.55669 18.0444 2.3012 17.2526 2.77387C18.0208 2.69118 18.7653 2.47842 19.4507 2.18301C18.9308 2.93931 18.2808 3.61288 17.5363 4.15653Z" fill="white"/>
</svg>
