<svg width="21" height="14" viewBox="0 0 21 14" fill="none" xmlns="http://www.w3.org/2000/svg">
<path d="M11.0086 13.9799L6.94639 13.904C5.63114 13.8775 4.31262 13.9303 3.02316 13.6563C1.06159 13.2468 0.922629 11.2389 0.777218 9.5546C0.576856 7.18676 0.654422 4.77594 1.03253 2.42787C1.24599 1.11035 2.08602 0.324183 3.3851 0.238632C7.77045 -0.0718425 12.185 -0.035048 16.5606 0.1098C17.0227 0.123078 17.488 0.195654 17.9437 0.278265C20.193 0.681183 20.2478 2.95658 20.3937 4.87204C20.5391 6.80726 20.4777 8.75242 20.1997 10.6745C19.9768 12.2659 19.5502 13.6004 17.7498 13.7292C15.494 13.8977 13.29 14.0333 11.0279 13.9901C11.028 13.9799 11.015 13.9799 11.0086 13.9799ZM8.6204 9.95093C10.3203 8.95352 11.9878 7.97273 13.678 6.98201C11.9749 5.9846 10.3106 5.00381 8.6204 4.01309V9.95093Z" fill="white"/>
</svg>
